<svg xmlns="http://www.w3.org/2000/svg" width="432" height="224" fill="none" viewBox="0 0 432 224">
  <path fill="url(#a)" stroke="url(#b)" d="M87.076 18.645 25.5 79.723V18.5H.5v155h25v-61.223l61.576 61.078.147.145h34.009l-.884-.859L41.46 96l78.888-76.641.884-.859H87.223l-.147.145Z"/>
  <mask id="e" width="294" height="155" x="128" y="18" fill="#000" maskUnits="userSpaceOnUse">
    <path fill="#fff" d="M128 18h294v155H128z"/>
    <path d="m265.705 19.418-57.886 152.44h-21.218l-56.65-152.44h24.308l43.26 124.012 44.908-124.012h23.278Zm16.383 150.062v-7.155c-4.41 5.76-10.755 8.64-19.035 8.64-9 0-15.66-2.52-19.98-7.56-3.06-3.69-4.59-8.19-4.59-13.5 0-18.36 13.5-27.54 40.5-27.54h2.025v-2.43c0-8.82-4.095-13.23-12.285-13.23-7.38 0-14.67 1.935-21.87 5.805V99.28c6.84-3.51 14.4-5.265 22.68-5.265 8.64 0 14.94 2.025 18.9 6.075 4.23 4.41 6.345 11.25 6.345 20.52v31.455c0 8.28.27 14.085.81 17.415h-13.5Zm-1.08-34.56h-2.835c-7.02 0-12.42.63-16.2 1.89-6.03 1.98-9.045 5.895-9.045 11.745 0 6.48 3.735 9.72 11.205 9.72 11.25 0 16.875-6.84 16.875-20.52v-2.835Zm41.164 33.885h-14.715V61.345h14.715v107.46Zm26.19.54h-14.445v-75.6h14.445v75.6Zm0-88.56h-14.445V63.91h14.445v16.875Zm41.414 24.84c-6.12 0-10.665 2.745-13.635 8.235-2.52 4.5-3.78 10.62-3.78 18.36 0 17.19 5.805 25.785 17.415 25.785 5.58 0 9.99-2.79 13.23-8.37 2.61-4.77 3.915-10.71 3.915-17.82 0-7.11-1.305-13.05-3.915-17.82-3.15-5.58-7.56-8.37-13.23-8.37Zm30.78 63.855h-13.635v-6.75c-4.5 5.58-10.665 8.37-18.495 8.37-9.81 0-17.415-3.645-22.815-10.935-5.04-7.11-7.56-16.425-7.56-27.945 0-11.88 2.34-21.24 7.02-28.08 5.13-7.65 12.915-11.475 23.355-11.475 7.2 0 13.365 2.97 18.495 8.91v-40.5h13.635V169.48Z"/>
  </mask>
  <path fill="url(#c)" d="m265.705 19.418-57.886 152.44h-21.218l-56.65-152.44h24.308l43.26 124.012 44.908-124.012h23.278Zm16.383 150.062v-7.155c-4.41 5.76-10.755 8.64-19.035 8.64-9 0-15.66-2.52-19.98-7.56-3.06-3.69-4.59-8.19-4.59-13.5 0-18.36 13.5-27.54 40.5-27.54h2.025v-2.43c0-8.82-4.095-13.23-12.285-13.23-7.38 0-14.67 1.935-21.87 5.805V99.28c6.84-3.51 14.4-5.265 22.68-5.265 8.64 0 14.94 2.025 18.9 6.075 4.23 4.41 6.345 11.25 6.345 20.52v31.455c0 8.28.27 14.085.81 17.415h-13.5Zm-1.08-34.56h-2.835c-7.02 0-12.42.63-16.2 1.89-6.03 1.98-9.045 5.895-9.045 11.745 0 6.48 3.735 9.72 11.205 9.72 11.25 0 16.875-6.84 16.875-20.52v-2.835Zm41.164 33.885h-14.715V61.345h14.715v107.46Zm26.19.54h-14.445v-75.6h14.445v75.6Zm0-88.56h-14.445V63.91h14.445v16.875Zm41.414 24.84c-6.12 0-10.665 2.745-13.635 8.235-2.52 4.5-3.78 10.62-3.78 18.36 0 17.19 5.805 25.785 17.415 25.785 5.58 0 9.99-2.79 13.23-8.37 2.61-4.77 3.915-10.71 3.915-17.82 0-7.11-1.305-13.05-3.915-17.82-3.15-5.58-7.56-8.37-13.23-8.37Zm30.78 63.855h-13.635v-6.75c-4.5 5.58-10.665 8.37-18.495 8.37-9.81 0-17.415-3.645-22.815-10.935-5.04-7.11-7.56-16.425-7.56-27.945 0-11.88 2.34-21.24 7.02-28.08 5.13-7.65 12.915-11.475 23.355-11.475 7.2 0 13.365 2.97 18.495 8.91v-40.5h13.635V169.48Z"/>
  <path fill="url(#d)" d="m265.705 19.418.935.355.515-1.355h-1.45v1Zm-57.886 152.44v1h.69l.245-.645-.935-.355Zm-21.218 0-.937.348.242.652h.695v-1Zm-56.65-152.44v-1h-1.438l.501 1.348.937-.348Zm24.308 0 .944-.33-.233-.67h-.711v1Zm43.26 124.012-.944.329.927 2.657.958-2.646-.941-.34Zm44.908-124.012v-1h-.701l-.239.66.94.34Zm22.343-.355-57.886 152.44 1.87.71 57.886-152.44-1.87-.71Zm-56.951 151.795h-21.218v2h21.218v-2Zm-20.28.652-56.65-152.44-1.875.696 56.65 152.44 1.875-.696ZM129.951 20.418h24.308v-2h-24.308v2Zm23.364-.67 43.26 124.011 1.888-.658-43.26-124.012-1.888.658ZM198.46 143.77l44.908-124.012-1.881-.68-44.908 124.012 1.881.68Zm43.967-123.352h23.278v-2h-23.278v2Zm39.661 149.062h-1v1h1v-1Zm0-7.155h1v-2.951l-1.794 2.343.794.608Zm-39.015 1.08-.77.638.005.007.006.006.759-.651Zm37.935-41.04v1h1v-1h-1Zm-34.155-9.855h-1v1.673l1.473-.792-.473-.881Zm0-13.23-.457-.89-.543.28v.61h1Zm41.58.81.722-.692-.007-.007-.715.699Zm7.155 69.39v1h1.175l-.188-1.16-.987.16Zm-14.58-34.56h1v-1h-1v1Zm-19.035 1.89.312.95.004-.001-.316-.949Zm21.115 32.67v-7.155h-2v7.155h2Zm-1.794-7.763c-4.193 5.476-10.222 8.248-18.241 8.248v2c8.541 0 15.201-2.988 19.829-9.032l-1.588-1.216Zm-18.241 8.248c-8.818 0-15.152-2.464-19.221-7.211l-1.518 1.302c4.571 5.333 11.556 7.909 20.739 7.909v-2Zm-19.21-7.198c-2.895-3.491-4.36-7.758-4.36-12.862h-2c0 5.516 1.595 10.249 4.82 14.138l1.54-1.276Zm-4.36-12.862c0-8.897 3.248-15.45 9.687-19.828 6.508-4.425 16.395-6.712 29.813-6.712v-2c-13.582 0-23.945 2.303-30.938 7.058-7.061 4.802-10.562 12.019-10.562 21.482h2Zm39.5-26.54h2.025v-2h-2.025v2Zm3.025-1v-2.43h-2v2.43h2Zm0-2.43c0-4.546-1.054-8.143-3.339-10.603-2.297-2.474-5.677-3.627-9.946-3.627v2c3.921 0 6.683 1.052 8.481 2.988 1.81 1.95 2.804 4.968 2.804 9.242h2Zm-13.285-14.23c-7.563 0-15.014 1.985-22.344 5.924l.947 1.762c7.071-3.801 14.199-5.686 21.397-5.686v-2Zm-20.87 6.805V99.28h-2v13.23h2Zm-.544-12.34c6.688-3.432 14.09-5.155 22.224-5.155v-2c-8.426 0-16.145 1.787-23.137 5.375l.913 1.78Zm22.224-5.155c8.51 0 14.492 1.997 18.185 5.774l1.43-1.398c-4.227-4.323-10.845-6.376-19.615-6.376v2Zm18.178 5.767c3.978 4.147 6.067 10.686 6.067 19.828h2c0-9.398-2.141-16.539-6.624-21.212l-1.443 1.384Zm6.067 19.828v31.455h2V120.61h-2Zm0 31.455c0 8.279.268 14.157.823 17.575l1.974-.32c-.526-3.242-.797-8.974-.797-17.255h-2Zm1.81 16.415h-13.5v2h13.5v-2Zm-14.58-34.56h-2.835v2h2.835v-2Zm-2.835 0c-7.059 0-12.585.631-16.516 1.941l.632 1.898c3.629-1.21 8.903-1.839 15.884-1.839v-2Zm-16.512 1.94c-3.152 1.035-5.604 2.605-7.264 4.761-1.666 2.163-2.469 4.83-2.469 7.934h2c0-2.746.704-4.962 2.053-6.714 1.355-1.758 3.425-3.136 6.304-4.081l-.624-1.9Zm-9.733 12.695c0 3.434.996 6.181 3.146 8.045 2.122 1.842 5.202 2.675 9.059 2.675v-2c-3.613 0-6.136-.787-7.749-2.185-1.585-1.376-2.456-3.489-2.456-6.535h-2Zm12.205 10.72c5.836 0 10.376-1.784 13.428-5.495 3.022-3.674 4.447-9.073 4.447-16.025h-2c0 6.728-1.387 11.589-3.991 14.755-2.573 3.129-6.471 4.765-11.884 4.765v2Zm17.875-21.52v-2.835h-2v2.835h2Zm40.164 31.05v1h1v-1h-1Zm-14.715 0h-1v1h1v-1Zm0-107.46v-1h-1v1h1Zm14.715 0h1v-1h-1v1Zm0 106.46h-14.715v2h14.715v-2Zm-13.715 1V61.345h-2v107.46h2Zm-1-106.46h14.715v-2h-14.715v2Zm13.715-1v107.46h2V61.345h-2Zm27.19 108v1h1v-1h-1Zm-14.445 0h-1v1h1v-1Zm0-75.6v-1h-1v1h1Zm14.445 0h1v-1h-1v1Zm0-12.96v1h1v-1h-1Zm-14.445 0h-1v1h1v-1Zm0-16.875v-1h-1v1h1Zm14.445 0h1v-1h-1v1Zm0 104.435h-14.445v2h14.445v-2Zm-13.445 1v-75.6h-2v75.6h2Zm-1-74.6h14.445v-2h-14.445v2Zm13.445-1v75.6h2v-75.6h-2Zm1-13.96h-14.445v2h14.445v-2Zm-13.445 1V63.91h-2v16.875h2Zm-1-15.875h14.445v-2h-14.445v2Zm13.445-1v16.875h2V63.91h-2Zm28.779 49.95.872.489.004-.007.003-.006-.879-.476Zm26.865 35.775.864.502.007-.011.006-.011-.877-.48Zm0-35.64.877-.48-.007-.012-.87.492Zm17.55 55.485v1h1v-1h-1Zm-13.635 0h-1v1h1v-1Zm0-6.75h1v-2.833l-1.779 2.205.779.628Zm-41.31-2.565-.816.578.006.009.006.008.804-.595Zm-.54-56.025.825.565.005-.008-.83-.557Zm41.85-2.565-.757.654 1.757 2.034v-2.688h-1Zm0-40.5v-1h-1v1h1Zm13.635 0h1v-1h-1v1Zm-30.78 43.55c-3.214 0-6.065.722-8.516 2.203-2.45 1.479-4.444 3.682-5.999 6.556l1.759.952c1.415-2.616 3.179-4.531 5.274-5.796 2.094-1.265 4.576-1.915 7.482-1.915v-2Zm-14.508 8.746c-2.635 4.706-3.907 11.017-3.907 18.849h2c0-7.648 1.247-13.577 3.652-17.871l-1.745-.978Zm-3.907 18.849c0 8.676 1.459 15.359 4.525 19.898 3.113 4.61 7.799 6.887 13.89 6.887v-2c-5.52 0-9.541-2.02-12.233-6.006-2.739-4.056-4.182-10.265-4.182-18.779h-2Zm18.415 26.785c5.998 0 10.709-3.037 14.094-8.868l-1.729-1.004c-3.095 5.329-7.204 7.872-12.365 7.872v2Zm14.107-8.89c2.711-4.956 4.038-11.072 4.038-18.3h-2c0 6.992-1.284 12.756-3.793 17.34l1.755.96Zm4.038-18.3c0-7.228-1.327-13.344-4.038-18.3l-1.755.96c2.509 4.584 3.793 10.348 3.793 17.34h2Zm-4.045-18.312c-3.299-5.844-8.016-8.878-14.1-8.878v2c5.256 0 9.358 2.546 12.359 7.862l1.741-.984Zm16.68 54.977h-13.635v2h13.635v-2Zm-12.635 1v-6.75h-2v6.75h2Zm-1.779-7.378c-4.291 5.321-10.157 7.998-17.716 7.998v2c8.1 0 14.564-2.903 19.273-8.742l-1.557-1.256Zm-17.716 7.998c-9.523 0-16.818-3.518-22.012-10.53l-1.607 1.19c5.606 7.568 13.522 11.34 23.619 11.34v-2Zm-22-10.513c-4.887-6.894-7.375-15.988-7.375-27.367h-2c0 11.661 2.551 21.197 7.744 28.523l1.631-1.156Zm-7.375-27.367c0-11.762 2.318-20.899 6.845-27.515l-1.651-1.13c-4.833 7.064-7.194 16.647-7.194 28.645h2Zm6.85-27.523c4.917-7.333 12.366-11.032 22.525-11.032v-2c-10.722 0-18.843 3.95-24.186 11.918l1.661 1.114Zm22.525-11.032c6.881 0 12.778 2.821 17.738 8.564l1.513-1.308c-5.3-6.137-11.732-9.256-19.251-9.256v2Zm19.495 7.91v-40.5h-2v40.5h2Zm-1-39.5h13.635v-2h-13.635v2Zm12.635-1V169.48h2V61.075h-2Z" mask="url(#e)"/>
  <defs>
    <linearGradient id="a" x1="1.358" x2="385.68" y1="19.414" y2="-40.125" gradientUnits="userSpaceOnUse">
      <stop offset=".045" stop-color="#E22346"/>
      <stop offset=".735" stop-color="#7F52FF"/>
    </linearGradient>
    <linearGradient id="b" x1="417.5" x2="-.5" y1="168" y2="20.5" gradientUnits="userSpaceOnUse">
      <stop offset=".045" stop-color="#E22346"/>
      <stop offset=".735" stop-color="#7F52FF"/>
    </linearGradient>
    <linearGradient id="c" x1="89.818" x2="368.403" y1="0" y2="190.791" gradientUnits="userSpaceOnUse">
      <stop offset=".045" stop-color="#E22346"/>
      <stop offset=".735" stop-color="#7F52FF"/>
    </linearGradient>
    <linearGradient id="d" x1="375.831" x2="97.867" y1="180.043" y2="-13.537" gradientUnits="userSpaceOnUse">
      <stop offset=".045" stop-color="#E22346"/>
      <stop offset=".735" stop-color="#7F52FF"/>
    </linearGradient>
  </defs>
</svg>
