<svg width="508" height="224" viewBox="0 0 508 224" fill="none" xmlns="http://www.w3.org/2000/svg">
  <mask id="path-1-outside-1_14_79" maskUnits="userSpaceOnUse" x="161" y="18" width="347" height="172" fill="black">
    <rect fill="white" x="161" y="18" width="347" height="172"/>
    <path d="M298.704 19.418L240.818 171.858H219.6L162.95 19.418H187.258L230.518 143.43L275.426 19.418H298.704ZM334.156 137.62H288.661C288.931 144.1 290.686 149.14 293.926 152.74C297.256 156.61 301.846 158.545 307.696 158.545C315.796 158.545 322.951 156.79 329.161 153.28V166.915C321.961 169.615 314.671 170.965 307.291 170.965C295.681 170.965 287.041 167.275 281.371 159.895C276.421 153.325 273.946 144.145 273.946 132.355C273.946 121.015 276.691 111.79 282.181 104.68C287.671 97.57 295.051 94.015 304.321 94.015C314.671 94.015 322.411 97.705 327.541 105.085C331.951 111.385 334.156 119.71 334.156 130.06V137.62ZM319.441 124.795C319.441 119.755 318.136 115.525 315.526 112.105C312.826 108.505 309.271 106.705 304.861 106.705C300.361 106.705 296.536 108.55 293.386 112.24C290.236 115.93 288.661 120.115 288.661 124.795H319.441ZM378.696 109C377.526 108.82 376.446 108.685 375.456 108.595C374.466 108.415 373.476 108.325 372.486 108.325C367.266 108.325 363.396 110.89 360.876 116.02C358.536 120.52 357.366 126.1 357.366 132.76V169.345H342.921V113.725C342.921 110.305 342.831 107.11 342.651 104.14C342.561 101.08 342.426 98.245 342.246 95.635H356.826V104.68C360.966 97.57 366.231 94.015 372.621 94.015C374.601 94.015 376.626 94.285 378.696 94.825V109ZM398.714 169.345H384.269V93.745H398.714V169.345ZM398.714 80.785H384.269V63.91H398.714V80.785ZM446.202 73.09C443.952 72.1 441.657 71.605 439.317 71.605C435.717 71.605 433.332 72.685 432.162 74.845C431.262 76.285 430.812 78.895 430.812 82.675C430.812 83.215 430.812 84.16 430.812 85.51C430.902 86.86 430.947 87.895 430.947 88.615V93.88H444.447V106.975H430.947V169.345H416.637V106.975H404.082V93.88H416.637V89.29C416.637 78.94 417.762 71.785 420.012 67.825C423.072 62.155 429.237 59.32 438.507 59.32C442.377 59.32 445.212 59.86 447.012 60.94L446.202 73.09ZM506.315 95.77L479.585 170.425C477.335 176.725 474.995 181.09 472.565 183.52C469.595 186.85 465.635 188.56 460.685 188.65H459.335C455.915 188.65 452.405 188.2 448.805 187.3L450.29 173.8C453.44 174.97 456.005 175.555 457.985 175.555C458.165 175.555 458.525 175.51 459.065 175.42C459.695 175.42 460.505 175.375 461.495 175.285C463.565 175.105 465.455 172.09 467.165 166.24L468.245 162.73L443.81 95.77H458.66L474.995 145.045L492.005 95.77H506.315Z"/>
  </mask>
  <path d="M298.704 19.418L240.818 171.858H219.6L162.95 19.418H187.258L230.518 143.43L275.426 19.418H298.704ZM334.156 137.62H288.661C288.931 144.1 290.686 149.14 293.926 152.74C297.256 156.61 301.846 158.545 307.696 158.545C315.796 158.545 322.951 156.79 329.161 153.28V166.915C321.961 169.615 314.671 170.965 307.291 170.965C295.681 170.965 287.041 167.275 281.371 159.895C276.421 153.325 273.946 144.145 273.946 132.355C273.946 121.015 276.691 111.79 282.181 104.68C287.671 97.57 295.051 94.015 304.321 94.015C314.671 94.015 322.411 97.705 327.541 105.085C331.951 111.385 334.156 119.71 334.156 130.06V137.62ZM319.441 124.795C319.441 119.755 318.136 115.525 315.526 112.105C312.826 108.505 309.271 106.705 304.861 106.705C300.361 106.705 296.536 108.55 293.386 112.24C290.236 115.93 288.661 120.115 288.661 124.795H319.441ZM378.696 109C377.526 108.82 376.446 108.685 375.456 108.595C374.466 108.415 373.476 108.325 372.486 108.325C367.266 108.325 363.396 110.89 360.876 116.02C358.536 120.52 357.366 126.1 357.366 132.76V169.345H342.921V113.725C342.921 110.305 342.831 107.11 342.651 104.14C342.561 101.08 342.426 98.245 342.246 95.635H356.826V104.68C360.966 97.57 366.231 94.015 372.621 94.015C374.601 94.015 376.626 94.285 378.696 94.825V109ZM398.714 169.345H384.269V93.745H398.714V169.345ZM398.714 80.785H384.269V63.91H398.714V80.785ZM446.202 73.09C443.952 72.1 441.657 71.605 439.317 71.605C435.717 71.605 433.332 72.685 432.162 74.845C431.262 76.285 430.812 78.895 430.812 82.675C430.812 83.215 430.812 84.16 430.812 85.51C430.902 86.86 430.947 87.895 430.947 88.615V93.88H444.447V106.975H430.947V169.345H416.637V106.975H404.082V93.88H416.637V89.29C416.637 78.94 417.762 71.785 420.012 67.825C423.072 62.155 429.237 59.32 438.507 59.32C442.377 59.32 445.212 59.86 447.012 60.94L446.202 73.09ZM506.315 95.77L479.585 170.425C477.335 176.725 474.995 181.09 472.565 183.52C469.595 186.85 465.635 188.56 460.685 188.65H459.335C455.915 188.65 452.405 188.2 448.805 187.3L450.29 173.8C453.44 174.97 456.005 175.555 457.985 175.555C458.165 175.555 458.525 175.51 459.065 175.42C459.695 175.42 460.505 175.375 461.495 175.285C463.565 175.105 465.455 172.09 467.165 166.24L468.245 162.73L443.81 95.77H458.66L474.995 145.045L492.005 95.77H506.315Z" fill="url(#paint0_linear_14_79)"/>
  <path d="M298.704 19.418L299.639 19.773L300.153 18.418H298.704V19.418ZM240.818 171.858V172.858H241.508L241.753 172.213L240.818 171.858ZM219.6 171.858L218.662 172.206L218.905 172.858H219.6V171.858ZM162.95 19.418V18.418H161.511L162.012 19.7663L162.95 19.418ZM187.258 19.418L188.202 19.0886L187.968 18.418H187.258V19.418ZM230.518 143.43L229.574 143.759L230.5 146.416L231.458 143.77L230.518 143.43ZM275.426 19.418V18.418H274.724L274.486 19.0775L275.426 19.418ZM297.769 19.063L239.883 171.503L241.753 172.213L299.639 19.773L297.769 19.063ZM240.818 170.858H219.6V172.858H240.818V170.858ZM220.537 171.51L163.887 19.0696L162.012 19.7663L218.662 172.206L220.537 171.51ZM162.95 20.418H187.258V18.418H162.95V20.418ZM186.314 19.7474L229.574 143.759L231.462 143.101L188.202 19.0886L186.314 19.7474ZM231.458 143.77L276.366 19.7585L274.486 19.0775L229.578 143.09L231.458 143.77ZM275.426 20.418H298.704V18.418H275.426V20.418ZM334.156 137.62V138.62H335.156V137.62H334.156ZM288.661 137.62V136.62H287.619L287.662 137.662L288.661 137.62ZM293.926 152.74L294.684 152.088L294.677 152.079L294.67 152.071L293.926 152.74ZM329.161 153.28H330.161V151.566L328.669 152.409L329.161 153.28ZM329.161 166.915L329.512 167.851L330.161 167.608V166.915H329.161ZM281.371 159.895L280.573 160.497L280.578 160.504L281.371 159.895ZM282.181 104.68L282.973 105.291L282.973 105.291L282.181 104.68ZM327.541 105.085L326.72 105.656L326.722 105.658L327.541 105.085ZM319.441 124.795V125.795H320.441V124.795H319.441ZM315.526 112.105L314.726 112.705L314.731 112.712L315.526 112.105ZM293.386 112.24L294.147 112.889L294.147 112.889L293.386 112.24ZM288.661 124.795H287.661V125.795H288.661V124.795ZM334.156 136.62H288.661V138.62H334.156V136.62ZM287.662 137.662C287.939 144.295 289.742 149.585 293.183 153.409L294.67 152.071C291.631 148.695 289.924 143.905 289.66 137.578L287.662 137.662ZM293.168 153.392C296.717 157.516 301.602 159.545 307.696 159.545V157.545C302.09 157.545 297.796 155.704 294.684 152.088L293.168 153.392ZM307.696 159.545C315.945 159.545 323.274 157.756 329.653 154.151L328.669 152.409C322.629 155.824 315.648 157.545 307.696 157.545V159.545ZM328.161 153.28V166.915H330.161V153.28H328.161ZM328.81 165.979C321.718 168.638 314.546 169.965 307.291 169.965V171.965C314.796 171.965 322.205 170.592 329.512 167.851L328.81 165.979ZM307.291 169.965C295.907 169.965 287.599 166.359 282.164 159.286L280.578 160.504C286.484 168.191 295.456 171.965 307.291 171.965V169.965ZM282.17 159.293C277.396 152.957 274.946 144.019 274.946 132.355H272.946C272.946 144.271 275.446 153.693 280.573 160.497L282.17 159.293ZM274.946 132.355C274.946 121.177 277.65 112.185 282.973 105.291L281.39 104.069C275.733 111.395 272.946 120.853 272.946 132.355H274.946ZM282.973 105.291C288.267 98.4354 295.35 95.015 304.321 95.015V93.015C294.753 93.015 287.076 96.7046 281.39 104.069L282.973 105.291ZM304.321 95.015C314.401 95.015 321.808 98.5885 326.72 105.656L328.362 104.514C323.015 96.8215 314.941 93.015 304.321 93.015V95.015ZM326.722 105.658C330.98 111.741 333.156 119.845 333.156 130.06H335.156C335.156 119.575 332.923 111.029 328.361 104.512L326.722 105.658ZM333.156 130.06V137.62H335.156V130.06H333.156ZM320.441 124.795C320.441 119.575 319.086 115.121 316.321 111.498L314.731 112.712C317.186 115.929 318.441 119.935 318.441 124.795H320.441ZM316.326 111.505C313.442 107.659 309.594 105.705 304.861 105.705V107.705C308.949 107.705 312.211 109.351 314.726 112.705L316.326 111.505ZM304.861 105.705C300.044 105.705 295.949 107.698 292.626 111.591L294.147 112.889C297.124 109.402 300.679 107.705 304.861 107.705V105.705ZM292.626 111.591C289.327 115.455 287.661 119.868 287.661 124.795H289.661C289.661 120.362 291.145 116.405 294.147 112.889L292.626 111.591ZM288.661 125.795H319.441V123.795H288.661V125.795ZM378.696 109L378.544 109.988L379.696 110.166V109H378.696ZM375.456 108.595L375.277 109.579L375.321 109.587L375.365 109.591L375.456 108.595ZM360.876 116.02L361.763 116.481L361.768 116.471L361.773 116.461L360.876 116.02ZM357.366 169.345V170.345H358.366V169.345H357.366ZM342.921 169.345H341.921V170.345H342.921V169.345ZM342.651 104.14L341.651 104.169L341.652 104.185L341.653 104.2L342.651 104.14ZM342.246 95.635V94.635H341.174L341.248 95.7038L342.246 95.635ZM356.826 95.635H357.826V94.635H356.826V95.635ZM356.826 104.68H355.826V108.385L357.69 105.183L356.826 104.68ZM378.696 94.825H379.696V94.0524L378.948 93.8574L378.696 94.825ZM378.848 108.012C377.661 107.829 376.56 107.691 375.546 107.599L375.365 109.591C376.331 109.679 377.39 109.811 378.544 109.988L378.848 108.012ZM375.635 107.611C374.587 107.421 373.537 107.325 372.486 107.325V109.325C373.415 109.325 374.345 109.409 375.277 109.579L375.635 107.611ZM372.486 107.325C369.705 107.325 367.234 108.011 365.116 109.415C363.002 110.816 361.298 112.891 359.978 115.579L361.773 116.461C362.973 114.019 364.464 112.247 366.221 111.082C367.972 109.922 370.047 109.325 372.486 109.325V107.325ZM359.989 115.559C357.555 120.239 356.366 125.988 356.366 132.76H358.366C358.366 126.212 359.517 120.801 361.763 116.481L359.989 115.559ZM356.366 132.76V169.345H358.366V132.76H356.366ZM357.366 168.345H342.921V170.345H357.366V168.345ZM343.921 169.345V113.725H341.921V169.345H343.921ZM343.921 113.725C343.921 110.288 343.83 107.072 343.649 104.08L341.653 104.2C341.831 107.148 341.921 110.322 341.921 113.725H343.921ZM343.65 104.111C343.56 101.04 343.424 98.1913 343.243 95.5662L341.248 95.7038C341.427 98.2987 341.562 101.12 341.651 104.169L343.65 104.111ZM342.246 96.635H356.826V94.635H342.246V96.635ZM355.826 95.635V104.68H357.826V95.635H355.826ZM357.69 105.183C361.71 98.279 366.691 95.015 372.621 95.015V93.015C365.771 93.015 360.221 96.861 355.962 104.177L357.69 105.183ZM372.621 95.015C374.509 95.015 376.449 95.2724 378.443 95.7926L378.948 93.8574C376.802 93.2976 374.692 93.015 372.621 93.015V95.015ZM377.696 94.825V109H379.696V94.825H377.696ZM398.714 169.345V170.345H399.714V169.345H398.714ZM384.269 169.345H383.269V170.345H384.269V169.345ZM384.269 93.745V92.745H383.269V93.745H384.269ZM398.714 93.745H399.714V92.745H398.714V93.745ZM398.714 80.785V81.785H399.714V80.785H398.714ZM384.269 80.785H383.269V81.785H384.269V80.785ZM384.269 63.91V62.91H383.269V63.91H384.269ZM398.714 63.91H399.714V62.91H398.714V63.91ZM398.714 168.345H384.269V170.345H398.714V168.345ZM385.269 169.345V93.745H383.269V169.345H385.269ZM384.269 94.745H398.714V92.745H384.269V94.745ZM397.714 93.745V169.345H399.714V93.745H397.714ZM398.714 79.785H384.269V81.785H398.714V79.785ZM385.269 80.785V63.91H383.269V80.785H385.269ZM384.269 64.91H398.714V62.91H384.269V64.91ZM397.714 63.91V80.785H399.714V63.91H397.714ZM446.202 73.09L445.799 74.0053L447.105 74.5798L447.2 73.1565L446.202 73.09ZM432.162 74.845L433.01 75.375L433.027 75.3486L433.041 75.3213L432.162 74.845ZM430.812 85.51H429.812V85.5433L429.814 85.5765L430.812 85.51ZM430.947 93.88H429.947V94.88H430.947V93.88ZM444.447 93.88H445.447V92.88H444.447V93.88ZM444.447 106.975V107.975H445.447V106.975H444.447ZM430.947 106.975V105.975H429.947V106.975H430.947ZM430.947 169.345V170.345H431.947V169.345H430.947ZM416.637 169.345H415.637V170.345H416.637V169.345ZM416.637 106.975H417.637V105.975H416.637V106.975ZM404.082 106.975H403.082V107.975H404.082V106.975ZM404.082 93.88V92.88H403.082V93.88H404.082ZM416.637 93.88V94.88H417.637V93.88H416.637ZM420.012 67.825L420.882 68.319L420.887 68.3095L420.892 68.2999L420.012 67.825ZM447.012 60.94L448.01 61.0065L448.051 60.3969L447.527 60.0825L447.012 60.94ZM446.605 72.1747C444.234 71.1317 441.803 70.605 439.317 70.605V72.605C441.511 72.605 443.67 73.0683 445.799 74.0053L446.605 72.1747ZM439.317 70.605C435.54 70.605 432.702 71.7479 431.283 74.3687L433.041 75.3213C433.962 73.6221 435.894 72.605 439.317 72.605V70.605ZM431.314 74.315C430.25 76.0172 429.812 78.8863 429.812 82.675H431.812C431.812 78.9037 432.274 76.5528 433.01 75.375L431.314 74.315ZM429.812 82.675C429.812 82.6761 429.812 82.6771 429.812 82.6782C429.812 82.6792 429.812 82.6803 429.812 82.6813C429.812 82.6824 429.812 82.6835 429.812 82.6845C429.812 82.6856 429.812 82.6867 429.812 82.6877C429.812 82.6888 429.812 82.6899 429.812 82.6909C429.812 82.692 429.812 82.6931 429.812 82.6941C429.812 82.6952 429.812 82.6963 429.812 82.6974C429.812 82.6984 429.812 82.6995 429.812 82.7006C429.812 82.7017 429.812 82.7028 429.812 82.7038C429.812 82.7049 429.812 82.706 429.812 82.7071C429.812 82.7082 429.812 82.7093 429.812 82.7104C429.812 82.7115 429.812 82.7125 429.812 82.7136C429.812 82.7147 429.812 82.7158 429.812 82.7169C429.812 82.718 429.812 82.7191 429.812 82.7202C429.812 82.7213 429.812 82.7224 429.812 82.7235C429.812 82.7246 429.812 82.7257 429.812 82.7268C429.812 82.7279 429.812 82.729 429.812 82.7301C429.812 82.7312 429.812 82.7323 429.812 82.7335C429.812 82.7346 429.812 82.7357 429.812 82.7368C429.812 82.7379 429.812 82.739 429.812 82.7401C429.812 82.7412 429.812 82.7424 429.812 82.7435C429.812 82.7446 429.812 82.7457 429.812 82.7468C429.812 82.748 429.812 82.7491 429.812 82.7502C429.812 82.7513 429.812 82.7525 429.812 82.7536C429.812 82.7547 429.812 82.7559 429.812 82.757C429.812 82.7581 429.812 82.7593 429.812 82.7604C429.812 82.7615 429.812 82.7627 429.812 82.7638C429.812 82.7649 429.812 82.7661 429.812 82.7672C429.812 82.7684 429.812 82.7695 429.812 82.7707C429.812 82.7718 429.812 82.7729 429.812 82.7741C429.812 82.7752 429.812 82.7764 429.812 82.7775C429.812 82.7787 429.812 82.7798 429.812 82.781C429.812 82.7821 429.812 82.7833 429.812 82.7845C429.812 82.7856 429.812 82.7868 429.812 82.7879C429.812 82.7891 429.812 82.7903 429.812 82.7914C429.812 82.7926 429.812 82.7937 429.812 82.7949C429.812 82.7961 429.812 82.7972 429.812 82.7984C429.812 82.7996 429.812 82.8008 429.812 82.8019C429.812 82.8031 429.812 82.8043 429.812 82.8054C429.812 82.8066 429.812 82.8078 429.812 82.809C429.812 82.8102 429.812 82.8113 429.812 82.8125C429.812 82.8137 429.812 82.8149 429.812 82.8161C429.812 82.8172 429.812 82.8184 429.812 82.8196C429.812 82.8208 429.812 82.822 429.812 82.8232C429.812 82.8244 429.812 82.8256 429.812 82.8268C429.812 82.828 429.812 82.8292 429.812 82.8304C429.812 82.8315 429.812 82.8327 429.812 82.8339C429.812 82.8351 429.812 82.8363 429.812 82.8375C429.812 82.8388 429.812 82.84 429.812 82.8412C429.812 82.8424 429.812 82.8436 429.812 82.8448C429.812 82.846 429.812 82.8472 429.812 82.8484C429.812 82.8496 429.812 82.8508 429.812 82.8521C429.812 82.8533 429.812 82.8545 429.812 82.8557C429.812 82.8569 429.812 82.8581 429.812 82.8594C429.812 82.8606 429.812 82.8618 429.812 82.863C429.812 82.8643 429.812 82.8655 429.812 82.8667C429.812 82.8679 429.812 82.8692 429.812 82.8704C429.812 82.8716 429.812 82.8729 429.812 82.8741C429.812 82.8753 429.812 82.8766 429.812 82.8778C429.812 82.879 429.812 82.8803 429.812 82.8815C429.812 82.8828 429.812 82.884 429.812 82.8852C429.812 82.8865 429.812 82.8877 429.812 82.889C429.812 82.8902 429.812 82.8915 429.812 82.8927C429.812 82.894 429.812 82.8952 429.812 82.8965C429.812 82.8977 429.812 82.899 429.812 82.9002C429.812 82.9015 429.812 82.9028 429.812 82.904C429.812 82.9053 429.812 82.9065 429.812 82.9078C429.812 82.9091 429.812 82.9103 429.812 82.9116C429.812 82.9128 429.812 82.9141 429.812 82.9154C429.812 82.9167 429.812 82.9179 429.812 82.9192C429.812 82.9205 429.812 82.9217 429.812 82.923C429.812 82.9243 429.812 82.9256 429.812 82.9268C429.812 82.9281 429.812 82.9294 429.812 82.9307C429.812 82.932 429.812 82.9332 429.812 82.9345C429.812 82.9358 429.812 82.9371 429.812 82.9384C429.812 82.9397 429.812 82.9409 429.812 82.9422C429.812 82.9435 429.812 82.9448 429.812 82.9461C429.812 82.9474 429.812 82.9487 429.812 82.95C429.812 82.9513 429.812 82.9526 429.812 82.9539C429.812 82.9552 429.812 82.9565 429.812 82.9578C429.812 82.9591 429.812 82.9604 429.812 82.9617C429.812 82.963 429.812 82.9643 429.812 82.9656C429.812 82.9669 429.812 82.9682 429.812 82.9695C429.812 82.9709 429.812 82.9722 429.812 82.9735C429.812 82.9748 429.812 82.9761 429.812 82.9774C429.812 82.9787 429.812 82.9801 429.812 82.9814C429.812 82.9827 429.812 82.984 429.812 82.9854C429.812 82.9867 429.812 82.988 429.812 82.9893C429.812 82.9907 429.812 82.992 429.812 82.9933C429.812 82.9946 429.812 82.996 429.812 82.9973C429.812 82.9986 429.812 83 429.812 83.0013C429.812 83.0026 429.812 83.004 429.812 83.0053C429.812 83.0067 429.812 83.008 429.812 83.0093C429.812 83.0107 429.812 83.012 429.812 83.0134C429.812 83.0147 429.812 83.0161 429.812 83.0174C429.812 83.0188 429.812 83.0201 429.812 83.0215C429.812 83.0228 429.812 83.0242 429.812 83.0255C429.812 83.0269 429.812 83.0282 429.812 83.0296C429.812 83.0309 429.812 83.0323 429.812 83.0337C429.812 83.035 429.812 83.0364 429.812 83.0378C429.812 83.0391 429.812 83.0405 429.812 83.0418C429.812 83.0432 429.812 83.0446 429.812 83.046C429.812 83.0473 429.812 83.0487 429.812 83.0501C429.812 83.0514 429.812 83.0528 429.812 83.0542C429.812 83.0556 429.812 83.0569 429.812 83.0583C429.812 83.0597 429.812 83.0611 429.812 83.0625C429.812 83.0638 429.812 83.0652 429.812 83.0666C429.812 83.068 429.812 83.0694 429.812 83.0708C429.812 83.0722 429.812 83.0736 429.812 83.0749C429.812 83.0763 429.812 83.0777 429.812 83.0791C429.812 83.0805 429.812 83.0819 429.812 83.0833C429.812 83.0847 429.812 83.0861 429.812 83.0875C429.812 83.0889 429.812 83.0903 429.812 83.0917C429.812 83.0931 429.812 83.0945 429.812 83.0959C429.812 83.0973 429.812 83.0987 429.812 83.1002C429.812 83.1016 429.812 83.103 429.812 83.1044C429.812 83.1058 429.812 83.1072 429.812 83.1086C429.812 83.1101 429.812 83.1115 429.812 83.1129C429.812 83.1143 429.812 83.1157 429.812 83.1172C429.812 83.1186 429.812 83.12 429.812 83.1214C429.812 83.1229 429.812 83.1243 429.812 83.1257C429.812 83.1271 429.812 83.1286 429.812 83.13C429.812 83.1314 429.812 83.1329 429.812 83.1343C429.812 83.1357 429.812 83.1372 429.812 83.1386C429.812 83.14 429.812 83.1415 429.812 83.1429C429.812 83.1444 429.812 83.1458 429.812 83.1473C429.812 83.1487 429.812 83.1501 429.812 83.1516C429.812 83.153 429.812 83.1545 429.812 83.1559C429.812 83.1574 429.812 83.1588 429.812 83.1603C429.812 83.1617 429.812 83.1632 429.812 83.1647C429.812 83.1661 429.812 83.1676 429.812 83.169C429.812 83.1705 429.812 83.1719 429.812 83.1734C429.812 83.1749 429.812 83.1763 429.812 83.1778C429.812 83.1793 429.812 83.1807 429.812 83.1822C429.812 83.1837 429.812 83.1851 429.812 83.1866C429.812 83.1881 429.812 83.1896 429.812 83.191C429.812 83.1925 429.812 83.194 429.812 83.1955C429.812 83.1969 429.812 83.1984 429.812 83.1999C429.812 83.2014 429.812 83.2029 429.812 83.2044C429.812 83.2058 429.812 83.2073 429.812 83.2088C429.812 83.2103 429.812 83.2118 429.812 83.2133C429.812 83.2148 429.812 83.2163 429.812 83.2177C429.812 83.2192 429.812 83.2207 429.812 83.2222C429.812 83.2237 429.812 83.2252 429.812 83.2267C429.812 83.2282 429.812 83.2297 429.812 83.2312C429.812 83.2327 429.812 83.2342 429.812 83.2357C429.812 83.2373 429.812 83.2388 429.812 83.2403C429.812 83.2418 429.812 83.2433 429.812 83.2448C429.812 83.2463 429.812 83.2478 429.812 83.2493C429.812 83.2509 429.812 83.2524 429.812 83.2539C429.812 83.2554 429.812 83.2569 429.812 83.2584C429.812 83.26 429.812 83.2615 429.812 83.263C429.812 83.2645 429.812 83.2661 429.812 83.2676C429.812 83.2691 429.812 83.2707 429.812 83.2722C429.812 83.2737 429.812 83.2752 429.812 83.2768C429.812 83.2783 429.812 83.2798 429.812 83.2814C429.812 83.2829 429.812 83.2845 429.812 83.286C429.812 83.2875 429.812 83.2891 429.812 83.2906C429.812 83.2922 429.812 83.2937 429.812 83.2953C429.812 83.2968 429.812 83.2983 429.812 83.2999C429.812 83.3014 429.812 83.303 429.812 83.3045C429.812 83.3061 429.812 83.3077 429.812 83.3092C429.812 83.3108 429.812 83.3123 429.812 83.3139C429.812 83.3154 429.812 83.317 429.812 83.3186C429.812 83.3201 429.812 83.3217 429.812 83.3232C429.812 83.3248 429.812 83.3264 429.812 83.3279C429.812 83.3295 429.812 83.3311 429.812 83.3327C429.812 83.3342 429.812 83.3358 429.812 83.3374C429.812 83.3389 429.812 83.3405 429.812 83.3421C429.812 83.3437 429.812 83.3453 429.812 83.3468C429.812 83.3484 429.812 83.35 429.812 83.3516C429.812 83.3532 429.812 83.3547 429.812 83.3563C429.812 83.3579 429.812 83.3595 429.812 83.3611C429.812 83.3627 429.812 83.3643 429.812 83.3659C429.812 83.3675 429.812 83.3691 429.812 83.3706C429.812 83.3722 429.812 83.3738 429.812 83.3754C429.812 83.377 429.812 83.3786 429.812 83.3802C429.812 83.3818 429.812 83.3834 429.812 83.385C429.812 83.3867 429.812 83.3883 429.812 83.3899C429.812 83.3915 429.812 83.3931 429.812 83.3947C429.812 83.3963 429.812 83.3979 429.812 83.3995C429.812 83.4011 429.812 83.4028 429.812 83.4044C429.812 83.406 429.812 83.4076 429.812 83.4092C429.812 83.4109 429.812 83.4125 429.812 83.4141C429.812 83.4157 429.812 83.4173 429.812 83.419C429.812 83.4206 429.812 83.4222 429.812 83.4239C429.812 83.4255 429.812 83.4271 429.812 83.4288C429.812 83.4304 429.812 83.432 429.812 83.4337C429.812 83.4353 429.812 83.4369 429.812 83.4386C429.812 83.4402 429.812 83.4418 429.812 83.4435C429.812 83.4451 429.812 83.4468 429.812 83.4484C429.812 83.4501 429.812 83.4517 429.812 83.4534C429.812 83.455 429.812 83.4567 429.812 83.4583C429.812 83.46 429.812 83.4616 429.812 83.4633C429.812 83.4649 429.812 83.4666 429.812 83.4682C429.812 83.4699 429.812 83.4715 429.812 83.4732C429.812 83.4749 429.812 83.4765 429.812 83.4782C429.812 83.4799 429.812 83.4815 429.812 83.4832C429.812 83.4849 429.812 83.4865 429.812 83.4882C429.812 83.4899 429.812 83.4915 429.812 83.4932C429.812 83.4949 429.812 83.4965 429.812 83.4982C429.812 83.4999 429.812 83.5016 429.812 83.5033C429.812 83.5049 429.812 83.5066 429.812 83.5083C429.812 83.51 429.812 83.5117 429.812 83.5133C429.812 83.515 429.812 83.5167 429.812 83.5184C429.812 83.5201 429.812 83.5218 429.812 83.5235C429.812 83.5252 429.812 83.5269 429.812 83.5286C429.812 83.5302 429.812 83.5319 429.812 83.5336C429.812 83.5353 429.812 83.537 429.812 83.5387C429.812 83.5404 429.812 83.5421 429.812 83.5438C429.812 83.5455 429.812 83.5473 429.812 83.549C429.812 83.5507 429.812 83.5524 429.812 83.5541C429.812 83.5558 429.812 83.5575 429.812 83.5592C429.812 83.5609 429.812 83.5626 429.812 83.5644C429.812 83.5661 429.812 83.5678 429.812 83.5695C429.812 83.5712 429.812 83.573 429.812 83.5747C429.812 83.5764 429.812 83.5781 429.812 83.5798C429.812 83.5816 429.812 83.5833 429.812 83.585C429.812 83.5868 429.812 83.5885 429.812 83.5902C429.812 83.5919 429.812 83.5937 429.812 83.5954C429.812 83.5972 429.812 83.5989 429.812 83.6006C429.812 83.6024 429.812 83.6041 429.812 83.6058C429.812 83.6076 429.812 83.6093 429.812 83.6111C429.812 83.6128 429.812 83.6146 429.812 83.6163C429.812 83.6181 429.812 83.6198 429.812 83.6215C429.812 83.6233 429.812 83.6251 429.812 83.6268C429.812 83.6286 429.812 83.6303 429.812 83.6321C429.812 83.6338 429.812 83.6356 429.812 83.6373C429.812 83.6391 429.812 83.6409 429.812 83.6426C429.812 83.6444 429.812 83.6461 429.812 83.6479C429.812 83.6497 429.812 83.6514 429.812 83.6532C429.812 83.655 429.812 83.6568 429.812 83.6585C429.812 83.6603 429.812 83.6621 429.812 83.6638C429.812 83.6656 429.812 83.6674 429.812 83.6692C429.812 83.671 429.812 83.6727 429.812 83.6745C429.812 83.6763 429.812 83.6781 429.812 83.6799C429.812 83.6816 429.812 83.6834 429.812 83.6852C429.812 83.687 429.812 83.6888 429.812 83.6906C429.812 83.6924 429.812 83.6942 429.812 83.696C429.812 83.6977 429.812 83.6995 429.812 83.7013C429.812 83.7031 429.812 83.7049 429.812 83.7067C429.812 83.7085 429.812 83.7103 429.812 83.7121C429.812 83.7139 429.812 83.7157 429.812 83.7175C429.812 83.7194 429.812 83.7212 429.812 83.723C429.812 83.7248 429.812 83.7266 429.812 83.7284C429.812 83.7302 429.812 83.732 429.812 83.7338C429.812 83.7357 429.812 83.7375 429.812 83.7393C429.812 83.7411 429.812 83.7429 429.812 83.7447C429.812 83.7466 429.812 83.7484 429.812 83.7502C429.812 83.752 429.812 83.7539 429.812 83.7557C429.812 83.7575 429.812 83.7593 429.812 83.7612C429.812 83.763 429.812 83.7648 429.812 83.7667C429.812 83.7685 429.812 83.7703 429.812 83.7722C429.812 83.774 429.812 83.7759 429.812 83.7777C429.812 83.7795 429.812 83.7814 429.812 83.7832C429.812 83.7851 429.812 83.7869 429.812 83.7887C429.812 83.7906 429.812 83.7924 429.812 83.7943C429.812 83.7961 429.812 83.798 429.812 83.7998C429.812 83.8017 429.812 83.8035 429.812 83.8054C429.812 83.8073 429.812 83.8091 429.812 83.811C429.812 83.8128 429.812 83.8147 429.812 83.8165C429.812 83.8184 429.812 83.8203 429.812 83.8221C429.812 83.824 429.812 83.8259 429.812 83.8277C429.812 83.8296 429.812 83.8315 429.812 83.8333C429.812 83.8352 429.812 83.8371 429.812 83.839C429.812 83.8408 429.812 83.8427 429.812 83.8446C429.812 83.8465 429.812 83.8483 429.812 83.8502C429.812 83.8521 429.812 83.854 429.812 83.8559C429.812 83.8577 429.812 83.8596 429.812 83.8615C429.812 83.8634 429.812 83.8653 429.812 83.8672C429.812 83.8691 429.812 83.871 429.812 83.8728C429.812 83.8747 429.812 83.8766 429.812 83.8785C429.812 83.8804 429.812 83.8823 429.812 83.8842C429.812 83.8861 429.812 83.888 429.812 83.8899C429.812 83.8918 429.812 83.8937 429.812 83.8956C429.812 83.8975 429.812 83.8994 429.812 83.9013C429.812 83.9032 429.812 83.9052 429.812 83.9071C429.812 83.909 429.812 83.9109 429.812 83.9128C429.812 83.9147 429.812 83.9166 429.812 83.9186C429.812 83.9205 429.812 83.9224 429.812 83.9243C429.812 83.9262 429.812 83.9281 429.812 83.9301C429.812 83.932 429.812 83.9339 429.812 83.9358C429.812 83.9378 429.812 83.9397 429.812 83.9416C429.812 83.9436 429.812 83.9455 429.812 83.9474C429.812 83.9494 429.812 83.9513 429.812 83.9532C429.812 83.9552 429.812 83.9571 429.812 83.959C429.812 83.961 429.812 83.9629 429.812 83.9649C429.812 83.9668 429.812 83.9687 429.812 83.9707C429.812 83.9726 429.812 83.9746 429.812 83.9765C429.812 83.9785 429.812 83.9804 429.812 83.9824C429.812 83.9843 429.812 83.9863 429.812 83.9882C429.812 83.9902 429.812 83.9921 429.812 83.9941C429.812 83.996 429.812 83.998 429.812 84C429.812 84.0019 429.812 84.0039 429.812 84.0058C429.812 84.0078 429.812 84.0098 429.812 84.0117C429.812 84.0137 429.812 84.0157 429.812 84.0176C429.812 84.0196 429.812 84.0216 429.812 84.0236C429.812 84.0255 429.812 84.0275 429.812 84.0295C429.812 84.0315 429.812 84.0334 429.812 84.0354C429.812 84.0374 429.812 84.0394 429.812 84.0414C429.812 84.0433 429.812 84.0453 429.812 84.0473C429.812 84.0493 429.812 84.0513 429.812 84.0533C429.812 84.0552 429.812 84.0572 429.812 84.0592C429.812 84.0612 429.812 84.0632 429.812 84.0652C429.812 84.0672 429.812 84.0692 429.812 84.0712C429.812 84.0732 429.812 84.0752 429.812 84.0772C429.812 84.0792 429.812 84.0812 429.812 84.0832C429.812 84.0852 429.812 84.0872 429.812 84.0892C429.812 84.0912 429.812 84.0932 429.812 84.0952C429.812 84.0972 429.812 84.0993 429.812 84.1013C429.812 84.1033 429.812 84.1053 429.812 84.1073C429.812 84.1093 429.812 84.1113 429.812 84.1134C429.812 84.1154 429.812 84.1174 429.812 84.1194C429.812 84.1214 429.812 84.1235 429.812 84.1255C429.812 84.1275 429.812 84.1295 429.812 84.1316C429.812 84.1336 429.812 84.1356 429.812 84.1377C429.812 84.1397 429.812 84.1417 429.812 84.1438C429.812 84.1458 429.812 84.1478 429.812 84.1499C429.812 84.1519 429.812 84.1539 429.812 84.156C429.812 84.158 429.812 84.1601 429.812 84.1621C429.812 84.1641 429.812 84.1662 429.812 84.1682C429.812 84.1703 429.812 84.1723 429.812 84.1744C429.812 84.1764 429.812 84.1785 429.812 84.1805C429.812 84.1826 429.812 84.1846 429.812 84.1867C429.812 84.1888 429.812 84.1908 429.812 84.1929C429.812 84.1949 429.812 84.197 429.812 84.1991C429.812 84.2011 429.812 84.2032 429.812 84.2052C429.812 84.2073 429.812 84.2094 429.812 84.2114C429.812 84.2135 429.812 84.2156 429.812 84.2177C429.812 84.2197 429.812 84.2218 429.812 84.2239C429.812 84.2259 429.812 84.228 429.812 84.2301C429.812 84.2322 429.812 84.2343 429.812 84.2363C429.812 84.2384 429.812 84.2405 429.812 84.2426C429.812 84.2447 429.812 84.2468 429.812 84.2488C429.812 84.2509 429.812 84.253 429.812 84.2551C429.812 84.2572 429.812 84.2593 429.812 84.2614C429.812 84.2635 429.812 84.2656 429.812 84.2677C429.812 84.2698 429.812 84.2719 429.812 84.274C429.812 84.2761 429.812 84.2782 429.812 84.2803C429.812 84.2824 429.812 84.2845 429.812 84.2866C429.812 84.2887 429.812 84.2908 429.812 84.2929C429.812 84.295 429.812 84.2971 429.812 84.2992C429.812 84.3013 429.812 84.3034 429.812 84.3056C429.812 84.3077 429.812 84.3098 429.812 84.3119C429.812 84.314 429.812 84.3161 429.812 84.3183C429.812 84.3204 429.812 84.3225 429.812 84.3246C429.812 84.3268 429.812 84.3289 429.812 84.331C429.812 84.3331 429.812 84.3353 429.812 84.3374C429.812 84.3395 429.812 84.3417 429.812 84.3438C429.812 84.3459 429.812 84.3481 429.812 84.3502C429.812 84.3523 429.812 84.3545 429.812 84.3566C429.812 84.3587 429.812 84.3609 429.812 84.363C429.812 84.3652 429.812 84.3673 429.812 84.3695C429.812 84.3716 429.812 84.3737 429.812 84.3759C429.812 84.378 429.812 84.3802 429.812 84.3823C429.812 84.3845 429.812 84.3867 429.812 84.3888C429.812 84.391 429.812 84.3931 429.812 84.3953C429.812 84.3974 429.812 84.3996 429.812 84.4018C429.812 84.4039 429.812 84.4061 429.812 84.4082C429.812 84.4104 429.812 84.4126 429.812 84.4147C429.812 84.4169 429.812 84.4191 429.812 84.4212C429.812 84.4234 429.812 84.4256 429.812 84.4278C429.812 84.4299 429.812 84.4321 429.812 84.4343C429.812 84.4365 429.812 84.4386 429.812 84.4408C429.812 84.443 429.812 84.4452 429.812 84.4474C429.812 84.4495 429.812 84.4517 429.812 84.4539C429.812 84.4561 429.812 84.4583 429.812 84.4605C429.812 84.4627 429.812 84.4649 429.812 84.467C429.812 84.4692 429.812 84.4714 429.812 84.4736C429.812 84.4758 429.812 84.478 429.812 84.4802C429.812 84.4824 429.812 84.4846 429.812 84.4868C429.812 84.489 429.812 84.4912 429.812 84.4934C429.812 84.4956 429.812 84.4978 429.812 84.5C429.812 84.5022 429.812 84.5045 429.812 84.5067C429.812 84.5089 429.812 84.5111 429.812 84.5133C429.812 84.5155 429.812 84.5177 429.812 84.5199C429.812 84.5222 429.812 84.5244 429.812 84.5266C429.812 84.5288 429.812 84.531 429.812 84.5333C429.812 84.5355 429.812 84.5377 429.812 84.5399C429.812 84.5422 429.812 84.5444 429.812 84.5466C429.812 84.5488 429.812 84.5511 429.812 84.5533C429.812 84.5555 429.812 84.5578 429.812 84.56C429.812 84.5622 429.812 84.5645 429.812 84.5667C429.812 84.569 429.812 84.5712 429.812 84.5734C429.812 84.5757 429.812 84.5779 429.812 84.5802C429.812 84.5824 429.812 84.5847 429.812 84.5869C429.812 84.5891 429.812 84.5914 429.812 84.5936C429.812 84.5959 429.812 84.5982 429.812 84.6004C429.812 84.6027 429.812 84.6049 429.812 84.6072C429.812 84.6094 429.812 84.6117 429.812 84.6139C429.812 84.6162 429.812 84.6185 429.812 84.6207C429.812 84.623 429.812 84.6253 429.812 84.6275C429.812 84.6298 429.812 84.6321 429.812 84.6343C429.812 84.6366 429.812 84.6389 429.812 84.6411C429.812 84.6434 429.812 84.6457 429.812 84.648C429.812 84.6502 429.812 84.6525 429.812 84.6548C429.812 84.6571 429.812 84.6593 429.812 84.6616C429.812 84.6639 429.812 84.6662 429.812 84.6685C429.812 84.6708 429.812 84.673 429.812 84.6753C429.812 84.6776 429.812 84.6799 429.812 84.6822C429.812 84.6845 429.812 84.6868 429.812 84.6891C429.812 84.6914 429.812 84.6937 429.812 84.696C429.812 84.6983 429.812 84.7006 429.812 84.7029C429.812 84.7052 429.812 84.7075 429.812 84.7098C429.812 84.7121 429.812 84.7144 429.812 84.7167C429.812 84.719 429.812 84.7213 429.812 84.7236C429.812 84.7259 429.812 84.7282 429.812 84.7305C429.812 84.7328 429.812 84.7352 429.812 84.7375C429.812 84.7398 429.812 84.7421 429.812 84.7444C429.812 84.7467 429.812 84.7491 429.812 84.7514C429.812 84.7537 429.812 84.756 429.812 84.7584C429.812 84.7607 429.812 84.763 429.812 84.7653C429.812 84.7677 429.812 84.77 429.812 84.7723C429.812 84.7746 429.812 84.777 429.812 84.7793C429.812 84.7816 429.812 84.784 429.812 84.7863C429.812 84.7887 429.812 84.791 429.812 84.7933C429.812 84.7957 429.812 84.798 429.812 84.8004C429.812 84.8027 429.812 84.8051 429.812 84.8074C429.812 84.8097 429.812 84.8121 429.812 84.8144C429.812 84.8168 429.812 84.8191 429.812 84.8215C429.812 84.8238 429.812 84.8262 429.812 84.8286C429.812 84.8309 429.812 84.8333 429.812 84.8356C429.812 84.838 429.812 84.8403 429.812 84.8427C429.812 84.8451 429.812 84.8474 429.812 84.8498C429.812 84.8522 429.812 84.8545 429.812 84.8569C429.812 84.8593 429.812 84.8616 429.812 84.864C429.812 84.8664 429.812 84.8687 429.812 84.8711C429.812 84.8735 429.812 84.8759 429.812 84.8782C429.812 84.8806 429.812 84.883 429.812 84.8854C429.812 84.8878 429.812 84.8901 429.812 84.8925C429.812 84.8949 429.812 84.8973 429.812 84.8997C429.812 84.9021 429.812 84.9045 429.812 84.9068C429.812 84.9092 429.812 84.9116 429.812 84.914C429.812 84.9164 429.812 84.9188 429.812 84.9212C429.812 84.9236 429.812 84.926 429.812 84.9284C429.812 84.9308 429.812 84.9332 429.812 84.9356C429.812 84.938 429.812 84.9404 429.812 84.9428C429.812 84.9452 429.812 84.9476 429.812 84.95C429.812 84.9524 429.812 84.9548 429.812 84.9573C429.812 84.9597 429.812 84.9621 429.812 84.9645C429.812 84.9669 429.812 84.9693 429.812 84.9717C429.812 84.9742 429.812 84.9766 429.812 84.979C429.812 84.9814 429.812 84.9838 429.812 84.9863C429.812 84.9887 429.812 84.9911 429.812 84.9935C429.812 84.996 429.812 84.9984 429.812 85.0008C429.812 85.0033 429.812 85.0057 429.812 85.0081C429.812 85.0106 429.812 85.013 429.812 85.0154C429.812 85.0179 429.812 85.0203 429.812 85.0227C429.812 85.0252 429.812 85.0276 429.812 85.0301C429.812 85.0325 429.812 85.0349 429.812 85.0374C429.812 85.0398 429.812 85.0423 429.812 85.0447C429.812 85.0472 429.812 85.0496 429.812 85.0521C429.812 85.0545 429.812 85.057 429.812 85.0594C429.812 85.0619 429.812 85.0643 429.812 85.0668C429.812 85.0693 429.812 85.0717 429.812 85.0742C429.812 85.0766 429.812 85.0791 429.812 85.0816C429.812 85.084 429.812 85.0865 429.812 85.089C429.812 85.0914 429.812 85.0939 429.812 85.0964C429.812 85.0988 429.812 85.1013 429.812 85.1038C429.812 85.1063 429.812 85.1087 429.812 85.1112C429.812 85.1137 429.812 85.1162 429.812 85.1186C429.812 85.1211 429.812 85.1236 429.812 85.1261C429.812 85.1286 429.812 85.131 429.812 85.1335C429.812 85.136 429.812 85.1385 429.812 85.141C429.812 85.1435 429.812 85.146 429.812 85.1485C429.812 85.151 429.812 85.1534 429.812 85.1559C429.812 85.1584 429.812 85.1609 429.812 85.1634C429.812 85.1659 429.812 85.1684 429.812 85.1709C429.812 85.1734 429.812 85.1759 429.812 85.1784C429.812 85.1809 429.812 85.1834 429.812 85.1859C429.812 85.1885 429.812 85.191 429.812 85.1935C429.812 85.196 429.812 85.1985 429.812 85.201C429.812 85.2035 429.812 85.206 429.812 85.2086C429.812 85.2111 429.812 85.2136 429.812 85.2161C429.812 85.2186 429.812 85.2211 429.812 85.2237C429.812 85.2262 429.812 85.2287 429.812 85.2312C429.812 85.2338 429.812 85.2363 429.812 85.2388C429.812 85.2413 429.812 85.2439 429.812 85.2464C429.812 85.2489 429.812 85.2515 429.812 85.254C429.812 85.2565 429.812 85.2591 429.812 85.2616C429.812 85.2642 429.812 85.2667 429.812 85.2692C429.812 85.2718 429.812 85.2743 429.812 85.2769C429.812 85.2794 429.812 85.282 429.812 85.2845C429.812 85.287 429.812 85.2896 429.812 85.2921C429.812 85.2947 429.812 85.2973 429.812 85.2998C429.812 85.3024 429.812 85.3049 429.812 85.3075C429.812 85.31 429.812 85.3126 429.812 85.3151C429.812 85.3177 429.812 85.3203 429.812 85.3228C429.812 85.3254 429.812 85.328 429.812 85.3305C429.812 85.3331 429.812 85.3357 429.812 85.3382C429.812 85.3408 429.812 85.3434 429.812 85.3459C429.812 85.3485 429.812 85.3511 429.812 85.3537C429.812 85.3562 429.812 85.3588 429.812 85.3614C429.812 85.364 429.812 85.3665 429.812 85.3691C429.812 85.3717 429.812 85.3743 429.812 85.3769C429.812 85.3795 429.812 85.382 429.812 85.3846C429.812 85.3872 429.812 85.3898 429.812 85.3924C429.812 85.395 429.812 85.3976 429.812 85.4002C429.812 85.4028 429.812 85.4054 429.812 85.408C429.812 85.4105 429.812 85.4131 429.812 85.4157C429.812 85.4183 429.812 85.4209 429.812 85.4235C429.812 85.4262 429.812 85.4288 429.812 85.4314C429.812 85.434 429.812 85.4366 429.812 85.4392C429.812 85.4418 429.812 85.4444 429.812 85.447C429.812 85.4496 429.812 85.4522 429.812 85.4549C429.812 85.4575 429.812 85.4601 429.812 85.4627C429.812 85.4653 429.812 85.4679 429.812 85.4706C429.812 85.4732 429.812 85.4758 429.812 85.4784C429.812 85.4811 429.812 85.4837 429.812 85.4863C429.812 85.4889 429.812 85.4916 429.812 85.4942C429.812 85.4968 429.812 85.4995 429.812 85.5021C429.812 85.5047 429.812 85.5074 429.812 85.51H431.812C431.812 85.5074 431.812 85.5047 431.812 85.5021C431.812 85.4995 431.812 85.4968 431.812 85.4942C431.812 85.4916 431.812 85.4889 431.812 85.4863C431.812 85.4837 431.812 85.4811 431.812 85.4784C431.812 85.4758 431.812 85.4732 431.812 85.4706C431.812 85.4679 431.812 85.4653 431.812 85.4627C431.812 85.4601 431.812 85.4575 431.812 85.4549C431.812 85.4522 431.812 85.4496 431.812 85.447C431.812 85.4444 431.812 85.4418 431.812 85.4392C431.812 85.4366 431.812 85.434 431.812 85.4314C431.812 85.4288 431.812 85.4262 431.812 85.4235C431.812 85.4209 431.812 85.4183 431.812 85.4157C431.812 85.4131 431.812 85.4105 431.812 85.408C431.812 85.4054 431.812 85.4028 431.812 85.4002C431.812 85.3976 431.812 85.395 431.812 85.3924C431.812 85.3898 431.812 85.3872 431.812 85.3846C431.812 85.382 431.812 85.3795 431.812 85.3769C431.812 85.3743 431.812 85.3717 431.812 85.3691C431.812 85.3665 431.812 85.364 431.812 85.3614C431.812 85.3588 431.812 85.3562 431.812 85.3537C431.812 85.3511 431.812 85.3485 431.812 85.3459C431.812 85.3434 431.812 85.3408 431.812 85.3382C431.812 85.3357 431.812 85.3331 431.812 85.3305C431.812 85.328 431.812 85.3254 431.812 85.3228C431.812 85.3203 431.812 85.3177 431.812 85.3151C431.812 85.3126 431.812 85.31 431.812 85.3075C431.812 85.3049 431.812 85.3024 431.812 85.2998C431.812 85.2973 431.812 85.2947 431.812 85.2921C431.812 85.2896 431.812 85.287 431.812 85.2845C431.812 85.282 431.812 85.2794 431.812 85.2769C431.812 85.2743 431.812 85.2718 431.812 85.2692C431.812 85.2667 431.812 85.2642 431.812 85.2616C431.812 85.2591 431.812 85.2565 431.812 85.254C431.812 85.2515 431.812 85.2489 431.812 85.2464C431.812 85.2439 431.812 85.2413 431.812 85.2388C431.812 85.2363 431.812 85.2338 431.812 85.2312C431.812 85.2287 431.812 85.2262 431.812 85.2237C431.812 85.2211 431.812 85.2186 431.812 85.2161C431.812 85.2136 431.812 85.2111 431.812 85.2086C431.812 85.206 431.812 85.2035 431.812 85.201C431.812 85.1985 431.812 85.196 431.812 85.1935C431.812 85.191 431.812 85.1885 431.812 85.1859C431.812 85.1834 431.812 85.1809 431.812 85.1784C431.812 85.1759 431.812 85.1734 431.812 85.1709C431.812 85.1684 431.812 85.1659 431.812 85.1634C431.812 85.1609 431.812 85.1584 431.812 85.1559C431.812 85.1534 431.812 85.151 431.812 85.1485C431.812 85.146 431.812 85.1435 431.812 85.141C431.812 85.1385 431.812 85.136 431.812 85.1335C431.812 85.131 431.812 85.1286 431.812 85.1261C431.812 85.1236 431.812 85.1211 431.812 85.1186C431.812 85.1162 431.812 85.1137 431.812 85.1112C431.812 85.1087 431.812 85.1063 431.812 85.1038C431.812 85.1013 431.812 85.0988 431.812 85.0964C431.812 85.0939 431.812 85.0914 431.812 85.089C431.812 85.0865 431.812 85.084 431.812 85.0816C431.812 85.0791 431.812 85.0766 431.812 85.0742C431.812 85.0717 431.812 85.0693 431.812 85.0668C431.812 85.0643 431.812 85.0619 431.812 85.0594C431.812 85.057 431.812 85.0545 431.812 85.0521C431.812 85.0496 431.812 85.0472 431.812 85.0447C431.812 85.0423 431.812 85.0398 431.812 85.0374C431.812 85.0349 431.812 85.0325 431.812 85.0301C431.812 85.0276 431.812 85.0252 431.812 85.0227C431.812 85.0203 431.812 85.0179 431.812 85.0154C431.812 85.013 431.812 85.0106 431.812 85.0081C431.812 85.0057 431.812 85.0033 431.812 85.0008C431.812 84.9984 431.812 84.996 431.812 84.9935C431.812 84.9911 431.812 84.9887 431.812 84.9863C431.812 84.9838 431.812 84.9814 431.812 84.979C431.812 84.9766 431.812 84.9742 431.812 84.9717C431.812 84.9693 431.812 84.9669 431.812 84.9645C431.812 84.9621 431.812 84.9597 431.812 84.9573C431.812 84.9548 431.812 84.9524 431.812 84.95C431.812 84.9476 431.812 84.9452 431.812 84.9428C431.812 84.9404 431.812 84.938 431.812 84.9356C431.812 84.9332 431.812 84.9308 431.812 84.9284C431.812 84.926 431.812 84.9236 431.812 84.9212C431.812 84.9188 431.812 84.9164 431.812 84.914C431.812 84.9116 431.812 84.9092 431.812 84.9068C431.812 84.9045 431.812 84.9021 431.812 84.8997C431.812 84.8973 431.812 84.8949 431.812 84.8925C431.812 84.8901 431.812 84.8878 431.812 84.8854C431.812 84.883 431.812 84.8806 431.812 84.8782C431.812 84.8759 431.812 84.8735 431.812 84.8711C431.812 84.8687 431.812 84.8664 431.812 84.864C431.812 84.8616 431.812 84.8593 431.812 84.8569C431.812 84.8545 431.812 84.8522 431.812 84.8498C431.812 84.8474 431.812 84.8451 431.812 84.8427C431.812 84.8403 431.812 84.838 431.812 84.8356C431.812 84.8333 431.812 84.8309 431.812 84.8286C431.812 84.8262 431.812 84.8238 431.812 84.8215C431.812 84.8191 431.812 84.8168 431.812 84.8144C431.812 84.8121 431.812 84.8097 431.812 84.8074C431.812 84.8051 431.812 84.8027 431.812 84.8004C431.812 84.798 431.812 84.7957 431.812 84.7933C431.812 84.791 431.812 84.7887 431.812 84.7863C431.812 84.784 431.812 84.7816 431.812 84.7793C431.812 84.777 431.812 84.7746 431.812 84.7723C431.812 84.77 431.812 84.7677 431.812 84.7653C431.812 84.763 431.812 84.7607 431.812 84.7584C431.812 84.756 431.812 84.7537 431.812 84.7514C431.812 84.7491 431.812 84.7467 431.812 84.7444C431.812 84.7421 431.812 84.7398 431.812 84.7375C431.812 84.7352 431.812 84.7328 431.812 84.7305C431.812 84.7282 431.812 84.7259 431.812 84.7236C431.812 84.7213 431.812 84.719 431.812 84.7167C431.812 84.7144 431.812 84.7121 431.812 84.7098C431.812 84.7075 431.812 84.7052 431.812 84.7029C431.812 84.7006 431.812 84.6983 431.812 84.696C431.812 84.6937 431.812 84.6914 431.812 84.6891C431.812 84.6868 431.812 84.6845 431.812 84.6822C431.812 84.6799 431.812 84.6776 431.812 84.6753C431.812 84.673 431.812 84.6708 431.812 84.6685C431.812 84.6662 431.812 84.6639 431.812 84.6616C431.812 84.6593 431.812 84.6571 431.812 84.6548C431.812 84.6525 431.812 84.6502 431.812 84.648C431.812 84.6457 431.812 84.6434 431.812 84.6411C431.812 84.6389 431.812 84.6366 431.812 84.6343C431.812 84.6321 431.812 84.6298 431.812 84.6275C431.812 84.6253 431.812 84.623 431.812 84.6207C431.812 84.6185 431.812 84.6162 431.812 84.6139C431.812 84.6117 431.812 84.6094 431.812 84.6072C431.812 84.6049 431.812 84.6027 431.812 84.6004C431.812 84.5982 431.812 84.5959 431.812 84.5936C431.812 84.5914 431.812 84.5891 431.812 84.5869C431.812 84.5847 431.812 84.5824 431.812 84.5802C431.812 84.5779 431.812 84.5757 431.812 84.5734C431.812 84.5712 431.812 84.569 431.812 84.5667C431.812 84.5645 431.812 84.5622 431.812 84.56C431.812 84.5578 431.812 84.5555 431.812 84.5533C431.812 84.5511 431.812 84.5488 431.812 84.5466C431.812 84.5444 431.812 84.5422 431.812 84.5399C431.812 84.5377 431.812 84.5355 431.812 84.5333C431.812 84.531 431.812 84.5288 431.812 84.5266C431.812 84.5244 431.812 84.5222 431.812 84.5199C431.812 84.5177 431.812 84.5155 431.812 84.5133C431.812 84.5111 431.812 84.5089 431.812 84.5067C431.812 84.5045 431.812 84.5022 431.812 84.5C431.812 84.4978 431.812 84.4956 431.812 84.4934C431.812 84.4912 431.812 84.489 431.812 84.4868C431.812 84.4846 431.812 84.4824 431.812 84.4802C431.812 84.478 431.812 84.4758 431.812 84.4736C431.812 84.4714 431.812 84.4692 431.812 84.467C431.812 84.4649 431.812 84.4627 431.812 84.4605C431.812 84.4583 431.812 84.4561 431.812 84.4539C431.812 84.4517 431.812 84.4495 431.812 84.4474C431.812 84.4452 431.812 84.443 431.812 84.4408C431.812 84.4386 431.812 84.4365 431.812 84.4343C431.812 84.4321 431.812 84.4299 431.812 84.4278C431.812 84.4256 431.812 84.4234 431.812 84.4212C431.812 84.4191 431.812 84.4169 431.812 84.4147C431.812 84.4126 431.812 84.4104 431.812 84.4082C431.812 84.4061 431.812 84.4039 431.812 84.4018C431.812 84.3996 431.812 84.3974 431.812 84.3953C431.812 84.3931 431.812 84.391 431.812 84.3888C431.812 84.3867 431.812 84.3845 431.812 84.3823C431.812 84.3802 431.812 84.378 431.812 84.3759C431.812 84.3737 431.812 84.3716 431.812 84.3695C431.812 84.3673 431.812 84.3652 431.812 84.363C431.812 84.3609 431.812 84.3587 431.812 84.3566C431.812 84.3545 431.812 84.3523 431.812 84.3502C431.812 84.3481 431.812 84.3459 431.812 84.3438C431.812 84.3417 431.812 84.3395 431.812 84.3374C431.812 84.3353 431.812 84.3331 431.812 84.331C431.812 84.3289 431.812 84.3268 431.812 84.3246C431.812 84.3225 431.812 84.3204 431.812 84.3183C431.812 84.3161 431.812 84.314 431.812 84.3119C431.812 84.3098 431.812 84.3077 431.812 84.3056C431.812 84.3034 431.812 84.3013 431.812 84.2992C431.812 84.2971 431.812 84.295 431.812 84.2929C431.812 84.2908 431.812 84.2887 431.812 84.2866C431.812 84.2845 431.812 84.2824 431.812 84.2803C431.812 84.2782 431.812 84.2761 431.812 84.274C431.812 84.2719 431.812 84.2698 431.812 84.2677C431.812 84.2656 431.812 84.2635 431.812 84.2614C431.812 84.2593 431.812 84.2572 431.812 84.2551C431.812 84.253 431.812 84.2509 431.812 84.2488C431.812 84.2468 431.812 84.2447 431.812 84.2426C431.812 84.2405 431.812 84.2384 431.812 84.2363C431.812 84.2343 431.812 84.2322 431.812 84.2301C431.812 84.228 431.812 84.2259 431.812 84.2239C431.812 84.2218 431.812 84.2197 431.812 84.2177C431.812 84.2156 431.812 84.2135 431.812 84.2114C431.812 84.2094 431.812 84.2073 431.812 84.2052C431.812 84.2032 431.812 84.2011 431.812 84.1991C431.812 84.197 431.812 84.1949 431.812 84.1929C431.812 84.1908 431.812 84.1888 431.812 84.1867C431.812 84.1846 431.812 84.1826 431.812 84.1805C431.812 84.1785 431.812 84.1764 431.812 84.1744C431.812 84.1723 431.812 84.1703 431.812 84.1682C431.812 84.1662 431.812 84.1641 431.812 84.1621C431.812 84.1601 431.812 84.158 431.812 84.156C431.812 84.1539 431.812 84.1519 431.812 84.1499C431.812 84.1478 431.812 84.1458 431.812 84.1438C431.812 84.1417 431.812 84.1397 431.812 84.1377C431.812 84.1356 431.812 84.1336 431.812 84.1316C431.812 84.1295 431.812 84.1275 431.812 84.1255C431.812 84.1235 431.812 84.1214 431.812 84.1194C431.812 84.1174 431.812 84.1154 431.812 84.1134C431.812 84.1113 431.812 84.1093 431.812 84.1073C431.812 84.1053 431.812 84.1033 431.812 84.1013C431.812 84.0993 431.812 84.0972 431.812 84.0952C431.812 84.0932 431.812 84.0912 431.812 84.0892C431.812 84.0872 431.812 84.0852 431.812 84.0832C431.812 84.0812 431.812 84.0792 431.812 84.0772C431.812 84.0752 431.812 84.0732 431.812 84.0712C431.812 84.0692 431.812 84.0672 431.812 84.0652C431.812 84.0632 431.812 84.0612 431.812 84.0592C431.812 84.0572 431.812 84.0552 431.812 84.0533C431.812 84.0513 431.812 84.0493 431.812 84.0473C431.812 84.0453 431.812 84.0433 431.812 84.0414C431.812 84.0394 431.812 84.0374 431.812 84.0354C431.812 84.0334 431.812 84.0315 431.812 84.0295C431.812 84.0275 431.812 84.0255 431.812 84.0236C431.812 84.0216 431.812 84.0196 431.812 84.0176C431.812 84.0157 431.812 84.0137 431.812 84.0117C431.812 84.0098 431.812 84.0078 431.812 84.0058C431.812 84.0039 431.812 84.0019 431.812 84C431.812 83.998 431.812 83.996 431.812 83.9941C431.812 83.9921 431.812 83.9902 431.812 83.9882C431.812 83.9863 431.812 83.9843 431.812 83.9824C431.812 83.9804 431.812 83.9785 431.812 83.9765C431.812 83.9746 431.812 83.9726 431.812 83.9707C431.812 83.9687 431.812 83.9668 431.812 83.9649C431.812 83.9629 431.812 83.961 431.812 83.959C431.812 83.9571 431.812 83.9552 431.812 83.9532C431.812 83.9513 431.812 83.9494 431.812 83.9474C431.812 83.9455 431.812 83.9436 431.812 83.9416C431.812 83.9397 431.812 83.9378 431.812 83.9358C431.812 83.9339 431.812 83.932 431.812 83.9301C431.812 83.9281 431.812 83.9262 431.812 83.9243C431.812 83.9224 431.812 83.9205 431.812 83.9186C431.812 83.9166 431.812 83.9147 431.812 83.9128C431.812 83.9109 431.812 83.909 431.812 83.9071C431.812 83.9052 431.812 83.9032 431.812 83.9013C431.812 83.8994 431.812 83.8975 431.812 83.8956C431.812 83.8937 431.812 83.8918 431.812 83.8899C431.812 83.888 431.812 83.8861 431.812 83.8842C431.812 83.8823 431.812 83.8804 431.812 83.8785C431.812 83.8766 431.812 83.8747 431.812 83.8728C431.812 83.871 431.812 83.8691 431.812 83.8672C431.812 83.8653 431.812 83.8634 431.812 83.8615C431.812 83.8596 431.812 83.8577 431.812 83.8559C431.812 83.854 431.812 83.8521 431.812 83.8502C431.812 83.8483 431.812 83.8465 431.812 83.8446C431.812 83.8427 431.812 83.8408 431.812 83.839C431.812 83.8371 431.812 83.8352 431.812 83.8333C431.812 83.8315 431.812 83.8296 431.812 83.8277C431.812 83.8259 431.812 83.824 431.812 83.8221C431.812 83.8203 431.812 83.8184 431.812 83.8165C431.812 83.8147 431.812 83.8128 431.812 83.811C431.812 83.8091 431.812 83.8073 431.812 83.8054C431.812 83.8035 431.812 83.8017 431.812 83.7998C431.812 83.798 431.812 83.7961 431.812 83.7943C431.812 83.7924 431.812 83.7906 431.812 83.7887C431.812 83.7869 431.812 83.7851 431.812 83.7832C431.812 83.7814 431.812 83.7795 431.812 83.7777C431.812 83.7759 431.812 83.774 431.812 83.7722C431.812 83.7703 431.812 83.7685 431.812 83.7667C431.812 83.7648 431.812 83.763 431.812 83.7612C431.812 83.7593 431.812 83.7575 431.812 83.7557C431.812 83.7539 431.812 83.752 431.812 83.7502C431.812 83.7484 431.812 83.7466 431.812 83.7447C431.812 83.7429 431.812 83.7411 431.812 83.7393C431.812 83.7375 431.812 83.7357 431.812 83.7338C431.812 83.732 431.812 83.7302 431.812 83.7284C431.812 83.7266 431.812 83.7248 431.812 83.723C431.812 83.7212 431.812 83.7194 431.812 83.7175C431.812 83.7157 431.812 83.7139 431.812 83.7121C431.812 83.7103 431.812 83.7085 431.812 83.7067C431.812 83.7049 431.812 83.7031 431.812 83.7013C431.812 83.6995 431.812 83.6977 431.812 83.696C431.812 83.6942 431.812 83.6924 431.812 83.6906C431.812 83.6888 431.812 83.687 431.812 83.6852C431.812 83.6834 431.812 83.6816 431.812 83.6799C431.812 83.6781 431.812 83.6763 431.812 83.6745C431.812 83.6727 431.812 83.671 431.812 83.6692C431.812 83.6674 431.812 83.6656 431.812 83.6638C431.812 83.6621 431.812 83.6603 431.812 83.6585C431.812 83.6568 431.812 83.655 431.812 83.6532C431.812 83.6514 431.812 83.6497 431.812 83.6479C431.812 83.6461 431.812 83.6444 431.812 83.6426C431.812 83.6409 431.812 83.6391 431.812 83.6373C431.812 83.6356 431.812 83.6338 431.812 83.6321C431.812 83.6303 431.812 83.6286 431.812 83.6268C431.812 83.6251 431.812 83.6233 431.812 83.6215C431.812 83.6198 431.812 83.6181 431.812 83.6163C431.812 83.6146 431.812 83.6128 431.812 83.6111C431.812 83.6093 431.812 83.6076 431.812 83.6058C431.812 83.6041 431.812 83.6024 431.812 83.6006C431.812 83.5989 431.812 83.5972 431.812 83.5954C431.812 83.5937 431.812 83.5919 431.812 83.5902C431.812 83.5885 431.812 83.5868 431.812 83.585C431.812 83.5833 431.812 83.5816 431.812 83.5798C431.812 83.5781 431.812 83.5764 431.812 83.5747C431.812 83.573 431.812 83.5712 431.812 83.5695C431.812 83.5678 431.812 83.5661 431.812 83.5644C431.812 83.5626 431.812 83.5609 431.812 83.5592C431.812 83.5575 431.812 83.5558 431.812 83.5541C431.812 83.5524 431.812 83.5507 431.812 83.549C431.812 83.5473 431.812 83.5455 431.812 83.5438C431.812 83.5421 431.812 83.5404 431.812 83.5387C431.812 83.537 431.812 83.5353 431.812 83.5336C431.812 83.5319 431.812 83.5302 431.812 83.5286C431.812 83.5269 431.812 83.5252 431.812 83.5235C431.812 83.5218 431.812 83.5201 431.812 83.5184C431.812 83.5167 431.812 83.515 431.812 83.5133C431.812 83.5117 431.812 83.51 431.812 83.5083C431.812 83.5066 431.812 83.5049 431.812 83.5033C431.812 83.5016 431.812 83.4999 431.812 83.4982C431.812 83.4965 431.812 83.4949 431.812 83.4932C431.812 83.4915 431.812 83.4899 431.812 83.4882C431.812 83.4865 431.812 83.4849 431.812 83.4832C431.812 83.4815 431.812 83.4799 431.812 83.4782C431.812 83.4765 431.812 83.4749 431.812 83.4732C431.812 83.4715 431.812 83.4699 431.812 83.4682C431.812 83.4666 431.812 83.4649 431.812 83.4633C431.812 83.4616 431.812 83.46 431.812 83.4583C431.812 83.4567 431.812 83.455 431.812 83.4534C431.812 83.4517 431.812 83.4501 431.812 83.4484C431.812 83.4468 431.812 83.4451 431.812 83.4435C431.812 83.4418 431.812 83.4402 431.812 83.4386C431.812 83.4369 431.812 83.4353 431.812 83.4337C431.812 83.432 431.812 83.4304 431.812 83.4288C431.812 83.4271 431.812 83.4255 431.812 83.4239C431.812 83.4222 431.812 83.4206 431.812 83.419C431.812 83.4173 431.812 83.4157 431.812 83.4141C431.812 83.4125 431.812 83.4109 431.812 83.4092C431.812 83.4076 431.812 83.406 431.812 83.4044C431.812 83.4028 431.812 83.4011 431.812 83.3995C431.812 83.3979 431.812 83.3963 431.812 83.3947C431.812 83.3931 431.812 83.3915 431.812 83.3899C431.812 83.3883 431.812 83.3867 431.812 83.385C431.812 83.3834 431.812 83.3818 431.812 83.3802C431.812 83.3786 431.812 83.377 431.812 83.3754C431.812 83.3738 431.812 83.3722 431.812 83.3706C431.812 83.3691 431.812 83.3675 431.812 83.3659C431.812 83.3643 431.812 83.3627 431.812 83.3611C431.812 83.3595 431.812 83.3579 431.812 83.3563C431.812 83.3547 431.812 83.3532 431.812 83.3516C431.812 83.35 431.812 83.3484 431.812 83.3468C431.812 83.3453 431.812 83.3437 431.812 83.3421C431.812 83.3405 431.812 83.3389 431.812 83.3374C431.812 83.3358 431.812 83.3342 431.812 83.3327C431.812 83.3311 431.812 83.3295 431.812 83.3279C431.812 83.3264 431.812 83.3248 431.812 83.3232C431.812 83.3217 431.812 83.3201 431.812 83.3186C431.812 83.317 431.812 83.3154 431.812 83.3139C431.812 83.3123 431.812 83.3108 431.812 83.3092C431.812 83.3077 431.812 83.3061 431.812 83.3045C431.812 83.303 431.812 83.3014 431.812 83.2999C431.812 83.2983 431.812 83.2968 431.812 83.2953C431.812 83.2937 431.812 83.2922 431.812 83.2906C431.812 83.2891 431.812 83.2875 431.812 83.286C431.812 83.2845 431.812 83.2829 431.812 83.2814C431.812 83.2798 431.812 83.2783 431.812 83.2768C431.812 83.2752 431.812 83.2737 431.812 83.2722C431.812 83.2707 431.812 83.2691 431.812 83.2676C431.812 83.2661 431.812 83.2645 431.812 83.263C431.812 83.2615 431.812 83.26 431.812 83.2584C431.812 83.2569 431.812 83.2554 431.812 83.2539C431.812 83.2524 431.812 83.2509 431.812 83.2493C431.812 83.2478 431.812 83.2463 431.812 83.2448C431.812 83.2433 431.812 83.2418 431.812 83.2403C431.812 83.2388 431.812 83.2373 431.812 83.2357C431.812 83.2342 431.812 83.2327 431.812 83.2312C431.812 83.2297 431.812 83.2282 431.812 83.2267C431.812 83.2252 431.812 83.2237 431.812 83.2222C431.812 83.2207 431.812 83.2192 431.812 83.2177C431.812 83.2163 431.812 83.2148 431.812 83.2133C431.812 83.2118 431.812 83.2103 431.812 83.2088C431.812 83.2073 431.812 83.2058 431.812 83.2044C431.812 83.2029 431.812 83.2014 431.812 83.1999C431.812 83.1984 431.812 83.1969 431.812 83.1955C431.812 83.194 431.812 83.1925 431.812 83.191C431.812 83.1896 431.812 83.1881 431.812 83.1866C431.812 83.1851 431.812 83.1837 431.812 83.1822C431.812 83.1807 431.812 83.1793 431.812 83.1778C431.812 83.1763 431.812 83.1749 431.812 83.1734C431.812 83.1719 431.812 83.1705 431.812 83.169C431.812 83.1676 431.812 83.1661 431.812 83.1647C431.812 83.1632 431.812 83.1617 431.812 83.1603C431.812 83.1588 431.812 83.1574 431.812 83.1559C431.812 83.1545 431.812 83.153 431.812 83.1516C431.812 83.1501 431.812 83.1487 431.812 83.1473C431.812 83.1458 431.812 83.1444 431.812 83.1429C431.812 83.1415 431.812 83.14 431.812 83.1386C431.812 83.1372 431.812 83.1357 431.812 83.1343C431.812 83.1329 431.812 83.1314 431.812 83.13C431.812 83.1286 431.812 83.1271 431.812 83.1257C431.812 83.1243 431.812 83.1229 431.812 83.1214C431.812 83.12 431.812 83.1186 431.812 83.1172C431.812 83.1157 431.812 83.1143 431.812 83.1129C431.812 83.1115 431.812 83.1101 431.812 83.1086C431.812 83.1072 431.812 83.1058 431.812 83.1044C431.812 83.103 431.812 83.1016 431.812 83.1002C431.812 83.0987 431.812 83.0973 431.812 83.0959C431.812 83.0945 431.812 83.0931 431.812 83.0917C431.812 83.0903 431.812 83.0889 431.812 83.0875C431.812 83.0861 431.812 83.0847 431.812 83.0833C431.812 83.0819 431.812 83.0805 431.812 83.0791C431.812 83.0777 431.812 83.0763 431.812 83.0749C431.812 83.0736 431.812 83.0722 431.812 83.0708C431.812 83.0694 431.812 83.068 431.812 83.0666C431.812 83.0652 431.812 83.0638 431.812 83.0625C431.812 83.0611 431.812 83.0597 431.812 83.0583C431.812 83.0569 431.812 83.0556 431.812 83.0542C431.812 83.0528 431.812 83.0514 431.812 83.0501C431.812 83.0487 431.812 83.0473 431.812 83.046C431.812 83.0446 431.812 83.0432 431.812 83.0418C431.812 83.0405 431.812 83.0391 431.812 83.0378C431.812 83.0364 431.812 83.035 431.812 83.0337C431.812 83.0323 431.812 83.0309 431.812 83.0296C431.812 83.0282 431.812 83.0269 431.812 83.0255C431.812 83.0242 431.812 83.0228 431.812 83.0215C431.812 83.0201 431.812 83.0188 431.812 83.0174C431.812 83.0161 431.812 83.0147 431.812 83.0134C431.812 83.012 431.812 83.0107 431.812 83.0093C431.812 83.008 431.812 83.0067 431.812 83.0053C431.812 83.004 431.812 83.0026 431.812 83.0013C431.812 83 431.812 82.9986 431.812 82.9973C431.812 82.996 431.812 82.9946 431.812 82.9933C431.812 82.992 431.812 82.9907 431.812 82.9893C431.812 82.988 431.812 82.9867 431.812 82.9854C431.812 82.984 431.812 82.9827 431.812 82.9814C431.812 82.9801 431.812 82.9787 431.812 82.9774C431.812 82.9761 431.812 82.9748 431.812 82.9735C431.812 82.9722 431.812 82.9709 431.812 82.9695C431.812 82.9682 431.812 82.9669 431.812 82.9656C431.812 82.9643 431.812 82.963 431.812 82.9617C431.812 82.9604 431.812 82.9591 431.812 82.9578C431.812 82.9565 431.812 82.9552 431.812 82.9539C431.812 82.9526 431.812 82.9513 431.812 82.95C431.812 82.9487 431.812 82.9474 431.812 82.9461C431.812 82.9448 431.812 82.9435 431.812 82.9422C431.812 82.9409 431.812 82.9397 431.812 82.9384C431.812 82.9371 431.812 82.9358 431.812 82.9345C431.812 82.9332 431.812 82.932 431.812 82.9307C431.812 82.9294 431.812 82.9281 431.812 82.9268C431.812 82.9256 431.812 82.9243 431.812 82.923C431.812 82.9217 431.812 82.9205 431.812 82.9192C431.812 82.9179 431.812 82.9167 431.812 82.9154C431.812 82.9141 431.812 82.9128 431.812 82.9116C431.812 82.9103 431.812 82.9091 431.812 82.9078C431.812 82.9065 431.812 82.9053 431.812 82.904C431.812 82.9028 431.812 82.9015 431.812 82.9002C431.812 82.899 431.812 82.8977 431.812 82.8965C431.812 82.8952 431.812 82.894 431.812 82.8927C431.812 82.8915 431.812 82.8902 431.812 82.889C431.812 82.8877 431.812 82.8865 431.812 82.8852C431.812 82.884 431.812 82.8828 431.812 82.8815C431.812 82.8803 431.812 82.879 431.812 82.8778C431.812 82.8766 431.812 82.8753 431.812 82.8741C431.812 82.8729 431.812 82.8716 431.812 82.8704C431.812 82.8692 431.812 82.8679 431.812 82.8667C431.812 82.8655 431.812 82.8643 431.812 82.863C431.812 82.8618 431.812 82.8606 431.812 82.8594C431.812 82.8581 431.812 82.8569 431.812 82.8557C431.812 82.8545 431.812 82.8533 431.812 82.8521C431.812 82.8508 431.812 82.8496 431.812 82.8484C431.812 82.8472 431.812 82.846 431.812 82.8448C431.812 82.8436 431.812 82.8424 431.812 82.8412C431.812 82.84 431.812 82.8388 431.812 82.8375C431.812 82.8363 431.812 82.8351 431.812 82.8339C431.812 82.8327 431.812 82.8315 431.812 82.8304C431.812 82.8292 431.812 82.828 431.812 82.8268C431.812 82.8256 431.812 82.8244 431.812 82.8232C431.812 82.822 431.812 82.8208 431.812 82.8196C431.812 82.8184 431.812 82.8172 431.812 82.8161C431.812 82.8149 431.812 82.8137 431.812 82.8125C431.812 82.8113 431.812 82.8102 431.812 82.809C431.812 82.8078 431.812 82.8066 431.812 82.8054C431.812 82.8043 431.812 82.8031 431.812 82.8019C431.812 82.8008 431.812 82.7996 431.812 82.7984C431.812 82.7972 431.812 82.7961 431.812 82.7949C431.812 82.7937 431.812 82.7926 431.812 82.7914C431.812 82.7903 431.812 82.7891 431.812 82.7879C431.812 82.7868 431.812 82.7856 431.812 82.7845C431.812 82.7833 431.812 82.7821 431.812 82.781C431.812 82.7798 431.812 82.7787 431.812 82.7775C431.812 82.7764 431.812 82.7752 431.812 82.7741C431.812 82.7729 431.812 82.7718 431.812 82.7707C431.812 82.7695 431.812 82.7684 431.812 82.7672C431.812 82.7661 431.812 82.7649 431.812 82.7638C431.812 82.7627 431.812 82.7615 431.812 82.7604C431.812 82.7593 431.812 82.7581 431.812 82.757C431.812 82.7559 431.812 82.7547 431.812 82.7536C431.812 82.7525 431.812 82.7513 431.812 82.7502C431.812 82.7491 431.812 82.748 431.812 82.7468C431.812 82.7457 431.812 82.7446 431.812 82.7435C431.812 82.7424 431.812 82.7412 431.812 82.7401C431.812 82.739 431.812 82.7379 431.812 82.7368C431.812 82.7357 431.812 82.7346 431.812 82.7335C431.812 82.7323 431.812 82.7312 431.812 82.7301C431.812 82.729 431.812 82.7279 431.812 82.7268C431.812 82.7257 431.812 82.7246 431.812 82.7235C431.812 82.7224 431.812 82.7213 431.812 82.7202C431.812 82.7191 431.812 82.718 431.812 82.7169C431.812 82.7158 431.812 82.7147 431.812 82.7136C431.812 82.7125 431.812 82.7115 431.812 82.7104C431.812 82.7093 431.812 82.7082 431.812 82.7071C431.812 82.706 431.812 82.7049 431.812 82.7038C431.812 82.7028 431.812 82.7017 431.812 82.7006C431.812 82.6995 431.812 82.6984 431.812 82.6974C431.812 82.6963 431.812 82.6952 431.812 82.6941C431.812 82.6931 431.812 82.692 431.812 82.6909C431.812 82.6899 431.812 82.6888 431.812 82.6877C431.812 82.6867 431.812 82.6856 431.812 82.6845C431.812 82.6835 431.812 82.6824 431.812 82.6813C431.812 82.6803 431.812 82.6792 431.812 82.6782C431.812 82.6771 431.812 82.6761 431.812 82.675H429.812ZM429.814 85.5765C429.904 86.92 429.947 87.9287 429.947 88.615H431.947C431.947 87.8613 431.9 86.8 431.81 85.4435L429.814 85.5765ZM429.947 88.615V93.88H431.947V88.615H429.947ZM430.947 94.88H444.447V92.88H430.947V94.88ZM443.447 93.88V106.975H445.447V93.88H443.447ZM444.447 105.975H430.947V107.975H444.447V105.975ZM429.947 106.975V169.345H431.947V106.975H429.947ZM430.947 168.345H416.637V170.345H430.947V168.345ZM417.637 169.345V106.975H415.637V169.345H417.637ZM416.637 105.975H404.082V107.975H416.637V105.975ZM405.082 106.975V93.88H403.082V106.975H405.082ZM404.082 94.88H416.637V92.88H404.082V94.88ZM417.637 93.88V89.29H415.637V93.88H417.637ZM417.637 89.29C417.637 78.9449 418.773 72.0296 420.882 68.319L419.143 67.331C416.751 71.5404 415.637 78.9351 415.637 89.29H417.637ZM420.892 68.2999C423.706 63.0861 429.424 60.32 438.507 60.32V58.32C429.05 58.32 422.438 61.2239 419.132 67.3501L420.892 68.2999ZM438.507 60.32C442.326 60.32 444.936 60.8604 446.498 61.7975L447.527 60.0825C445.488 58.8596 442.428 58.32 438.507 58.32V60.32ZM446.014 60.8735L445.204 73.0235L447.2 73.1565L448.01 61.0065L446.014 60.8735ZM506.315 95.77L507.257 96.1071L507.735 94.77H506.315V95.77ZM479.585 170.425L478.644 170.088L478.643 170.089L479.585 170.425ZM472.565 183.52L471.858 182.813L471.838 182.833L471.819 182.854L472.565 183.52ZM460.685 188.65V189.65H460.694L460.703 189.65L460.685 188.65ZM448.805 187.3L447.811 187.191L447.716 188.058L448.563 188.27L448.805 187.3ZM450.29 173.8L450.638 172.863L449.436 172.416L449.296 173.691L450.29 173.8ZM459.065 175.42V174.42H458.982L458.901 174.434L459.065 175.42ZM461.495 175.285L461.408 174.289L461.405 174.289L461.495 175.285ZM467.165 166.24L466.209 165.946L466.205 165.959L467.165 166.24ZM468.245 162.73L469.201 163.024L469.3 162.703L469.184 162.387L468.245 162.73ZM443.81 95.77V94.77H442.381L442.871 96.1128L443.81 95.77ZM458.66 95.77L459.609 95.4553L459.382 94.77H458.66V95.77ZM474.995 145.045L474.046 145.36L474.976 148.165L475.94 145.371L474.995 145.045ZM492.005 95.77V94.77H491.292L491.06 95.4437L492.005 95.77ZM505.374 95.4329L478.644 170.088L480.527 170.762L507.257 96.1071L505.374 95.4329ZM478.643 170.089C476.405 176.357 474.125 180.546 471.858 182.813L473.272 184.227C475.865 181.634 478.265 177.093 480.527 170.761L478.643 170.089ZM471.819 182.854C469.056 185.952 465.372 187.565 460.667 187.65L460.703 189.65C465.898 189.555 470.134 187.748 473.311 184.186L471.819 182.854ZM460.685 187.65H459.335V189.65H460.685V187.65ZM459.335 187.65C456.003 187.65 452.575 187.212 449.048 186.33L448.563 188.27C452.235 189.188 455.827 189.65 459.335 189.65V187.65ZM449.799 187.409L451.284 173.909L449.296 173.691L447.811 187.191L449.799 187.409ZM449.942 174.737C453.137 175.924 455.831 176.555 457.985 176.555V174.555C456.179 174.555 453.743 174.016 450.638 172.863L449.942 174.737ZM457.985 176.555C458.262 176.555 458.704 176.494 459.229 176.406L458.901 174.434C458.346 174.526 458.068 174.555 457.985 174.555V176.555ZM459.065 176.42C459.737 176.42 460.581 176.372 461.586 176.281L461.405 174.289C460.43 174.378 459.653 174.42 459.065 174.42V176.42ZM461.582 176.281C463.096 176.15 464.317 175.008 465.312 173.42C466.329 171.798 467.26 169.481 468.125 166.521L466.205 165.959C465.36 168.849 464.491 170.964 463.618 172.358C462.723 173.784 461.964 174.24 461.408 174.289L461.582 176.281ZM468.121 166.534L469.201 163.024L467.289 162.436L466.209 165.946L468.121 166.534ZM469.184 162.387L444.749 95.4272L442.871 96.1128L467.306 163.073L469.184 162.387ZM443.81 96.77H458.66V94.77H443.81V96.77ZM457.711 96.0847L474.046 145.36L475.944 144.73L459.609 95.4553L457.711 96.0847ZM475.94 145.371L492.95 96.0963L491.06 95.4437L474.05 144.719L475.94 145.371ZM492.005 96.77H506.315V94.77H492.005V96.77Z" fill="url(#paint1_linear_14_79)" mask="url(#path-1-outside-1_14_79)"/>
  <path d="M0.645012 76.9235L61.7229 138.5H1H0.5L0.5 139L0.5 163L0.5 163.5H1L155 163.5H155.5V163V139V138.5H155L94.2771 138.5L155.355 76.9235L155.5 76.7773V76.5714L155.5 44V42.7678L154.641 43.6516L78 122.54L1.35862 43.6516L0.5 42.7678L0.5 44L0.5 76.5714V76.7773L0.645012 76.9235Z" fill="url(#paint2_linear_14_79)" stroke="url(#paint3_linear_14_79)"/>
  <defs>
    <linearGradient id="paint0_linear_14_79" x1="17.5752" y1="20" x2="450.716" y2="250.814" gradientUnits="userSpaceOnUse">
      <stop stop-color="#008CFF"/>
      <stop offset="1" stop-color="#00FF11"/>
    </linearGradient>
    <linearGradient id="paint1_linear_14_79" x1="495.454" y1="169" x2="32.5591" y2="-22.0649" gradientUnits="userSpaceOnUse">
      <stop offset="0.045" stop-color="#008CFF"/>
      <stop offset="1" stop-color="#00FF11"/>
    </linearGradient>
    <linearGradient id="paint2_linear_14_79" x1="2.49339e-07" y1="164" x2="152" y2="-257.5" gradientUnits="userSpaceOnUse">
      <stop offset="0.045" stop-color="#008CFF"/>
      <stop offset="0.735" stop-color="#00FF11"/>
    </linearGradient>
    <linearGradient id="paint3_linear_14_79" x1="155" y1="-258.5" x2="163.284" y2="159.786" gradientUnits="userSpaceOnUse">
      <stop offset="0.045" stop-color="#008CFF"/>
      <stop offset="0.735" stop-color="#00FF11"/>
    </linearGradient>
  </defs>
</svg>
