<svg xmlns="http://www.w3.org/2000/svg" width="452" height="248" fill="none" viewBox="0 0 452 248">
  <g clip-path="url(#a)">
    <path fill="url(#b)" d="M150 198.99H0V49.01h150l-76.547 73.877L150 198.99Z"/>
  </g>
  <mask id="e" width="287" height="154" x="154" y="48" fill="#000" maskUnits="userSpaceOnUse">
    <path fill="#fff" d="M154 48h287v154H154z"/>
    <path d="m174.507 49.91 44.261 125.503h1.747l44.262-125.504h18.927L228.96 199h-18.636L155.579 49.91h18.928Zm109.49 150.816c-4.666 0-8.901-.879-12.704-2.637-3.803-1.79-6.824-4.362-9.061-7.718-2.237-3.388-3.356-7.479-3.356-12.273 0-4.219.831-7.638 2.493-10.259 1.662-2.653 3.883-4.73 6.664-6.232 2.781-1.503 5.849-2.621 9.205-3.356a111.84 111.84 0 0 1 10.211-1.822c4.474-.575 8.102-1.007 10.882-1.294 2.813-.32 4.858-.847 6.137-1.582 1.31-.736 1.965-2.014 1.965-3.836v-.383c0-4.73-1.294-8.406-3.883-11.026-2.557-2.621-6.44-3.932-11.649-3.932-5.402 0-9.636 1.183-12.705 3.548-3.068 2.365-5.225 4.89-6.472 7.575l-10.738-3.836c1.917-4.474 4.474-7.958 7.67-10.451 3.228-2.525 6.744-4.282 10.547-5.273 3.835-1.023 7.607-1.534 11.314-1.534 2.365 0 5.082.287 8.15.863 3.1.543 6.088 1.678 8.965 3.404 2.908 1.725 5.321 4.33 7.239 7.814 1.917 3.483 2.876 8.15 2.876 13.998V199h-11.314v-9.972h-.575c-.767 1.598-2.046 3.308-3.835 5.13-1.79 1.822-4.171 3.372-7.143 4.65-2.973 1.279-6.6 1.918-10.883 1.918Zm1.726-10.164c4.474 0 8.246-.878 11.314-2.636 3.1-1.758 5.433-4.027 6.999-6.808 1.598-2.78 2.397-5.705 2.397-8.773V161.99c-.479.575-1.534 1.103-3.164 1.582-1.598.448-3.452.847-5.561 1.199a257.68 257.68 0 0 1-6.088.863c-1.95.223-3.532.415-4.746.575-2.941.383-5.689 1.007-8.246 1.869-2.525.831-4.571 2.094-6.137 3.788-1.534 1.662-2.301 3.931-2.301 6.807 0 3.931 1.454 6.904 4.363 8.917 2.94 1.982 6.664 2.972 11.17 2.972Zm55.888-89.744V199h-11.314v-98.182h11.314ZM354.234 199v-73.636h11.313V199h-11.313Zm5.752-85.909c-2.205 0-4.107-.751-5.705-2.253-1.566-1.502-2.349-3.308-2.349-5.418 0-2.109.783-3.915 2.349-5.417 1.598-1.502 3.5-2.253 5.705-2.253 2.206 0 4.091.751 5.657 2.253 1.598 1.502 2.397 3.308 2.397 5.417 0 2.11-.799 3.916-2.397 5.418-1.566 1.502-3.451 2.253-5.657 2.253Zm45.989 87.443c-6.136 0-11.554-1.55-16.252-4.65-4.698-3.132-8.373-7.543-11.026-13.232-2.653-5.721-3.979-12.48-3.979-20.278 0-7.735 1.326-14.446 3.979-20.135 2.653-5.689 6.344-10.084 11.074-13.184 4.73-3.1 10.196-4.65 16.396-4.65 4.794 0 8.581.799 11.362 2.397 2.812 1.566 4.954 3.356 6.424 5.369 1.502 1.982 2.668 3.612 3.499 4.89h.959v-36.243h11.314V199h-10.93v-11.314h-1.343c-.831 1.342-2.013 3.036-3.547 5.082-1.534 2.013-3.724 3.819-6.568 5.417-2.845 1.566-6.632 2.349-11.362 2.349Zm1.534-10.163c4.539 0 8.374-1.183 11.506-3.548 3.132-2.397 5.513-5.705 7.143-9.923 1.63-4.251 2.445-9.157 2.445-14.718 0-5.497-.799-10.307-2.397-14.43-1.598-4.155-3.963-7.383-7.095-9.684-3.132-2.333-7-3.5-11.602-3.5-4.794 0-8.789 1.231-11.985 3.692-3.164 2.429-5.545 5.736-7.143 9.923-1.566 4.155-2.349 8.821-2.349 13.999 0 5.241.799 10.003 2.397 14.286 1.63 4.251 4.027 7.639 7.191 10.163 3.196 2.493 7.159 3.74 11.889 3.74Z"/>
  </mask>
  <path fill="url(#c)" fill-opacity=".71" d="m174.507 49.91 44.261 125.503h1.747l44.262-125.504h18.927L228.96 199h-18.636L155.579 49.91h18.928Zm109.49 150.816c-4.666 0-8.901-.879-12.704-2.637-3.803-1.79-6.824-4.362-9.061-7.718-2.237-3.388-3.356-7.479-3.356-12.273 0-4.219.831-7.638 2.493-10.259 1.662-2.653 3.883-4.73 6.664-6.232 2.781-1.503 5.849-2.621 9.205-3.356a111.84 111.84 0 0 1 10.211-1.822c4.474-.575 8.102-1.007 10.882-1.294 2.813-.32 4.858-.847 6.137-1.582 1.31-.736 1.965-2.014 1.965-3.836v-.383c0-4.73-1.294-8.406-3.883-11.026-2.557-2.621-6.44-3.932-11.649-3.932-5.402 0-9.636 1.183-12.705 3.548-3.068 2.365-5.225 4.89-6.472 7.575l-10.738-3.836c1.917-4.474 4.474-7.958 7.67-10.451 3.228-2.525 6.744-4.282 10.547-5.273 3.835-1.023 7.607-1.534 11.314-1.534 2.365 0 5.082.287 8.15.863 3.1.543 6.088 1.678 8.965 3.404 2.908 1.725 5.321 4.33 7.239 7.814 1.917 3.483 2.876 8.15 2.876 13.998V199h-11.314v-9.972h-.575c-.767 1.598-2.046 3.308-3.835 5.13-1.79 1.822-4.171 3.372-7.143 4.65-2.973 1.279-6.6 1.918-10.883 1.918Zm1.726-10.164c4.474 0 8.246-.878 11.314-2.636 3.1-1.758 5.433-4.027 6.999-6.808 1.598-2.78 2.397-5.705 2.397-8.773V161.99c-.479.575-1.534 1.103-3.164 1.582-1.598.448-3.452.847-5.561 1.199a257.68 257.68 0 0 1-6.088.863c-1.95.223-3.532.415-4.746.575-2.941.383-5.689 1.007-8.246 1.869-2.525.831-4.571 2.094-6.137 3.788-1.534 1.662-2.301 3.931-2.301 6.807 0 3.931 1.454 6.904 4.363 8.917 2.94 1.982 6.664 2.972 11.17 2.972Zm55.888-89.744V199h-11.314v-98.182h11.314ZM354.234 199v-73.636h11.313V199h-11.313Zm5.752-85.909c-2.205 0-4.107-.751-5.705-2.253-1.566-1.502-2.349-3.308-2.349-5.418 0-2.109.783-3.915 2.349-5.417 1.598-1.502 3.5-2.253 5.705-2.253 2.206 0 4.091.751 5.657 2.253 1.598 1.502 2.397 3.308 2.397 5.417 0 2.11-.799 3.916-2.397 5.418-1.566 1.502-3.451 2.253-5.657 2.253Zm45.989 87.443c-6.136 0-11.554-1.55-16.252-4.65-4.698-3.132-8.373-7.543-11.026-13.232-2.653-5.721-3.979-12.48-3.979-20.278 0-7.735 1.326-14.446 3.979-20.135 2.653-5.689 6.344-10.084 11.074-13.184 4.73-3.1 10.196-4.65 16.396-4.65 4.794 0 8.581.799 11.362 2.397 2.812 1.566 4.954 3.356 6.424 5.369 1.502 1.982 2.668 3.612 3.499 4.89h.959v-36.243h11.314V199h-10.93v-11.314h-1.343c-.831 1.342-2.013 3.036-3.547 5.082-1.534 2.013-3.724 3.819-6.568 5.417-2.845 1.566-6.632 2.349-11.362 2.349Zm1.534-10.163c4.539 0 8.374-1.183 11.506-3.548 3.132-2.397 5.513-5.705 7.143-9.923 1.63-4.251 2.445-9.157 2.445-14.718 0-5.497-.799-10.307-2.397-14.43-1.598-4.155-3.963-7.383-7.095-9.684-3.132-2.333-7-3.5-11.602-3.5-4.794 0-8.789 1.231-11.985 3.692-3.164 2.429-5.545 5.736-7.143 9.923-1.566 4.155-2.349 8.821-2.349 13.999 0 5.241.799 10.003 2.397 14.286 1.63 4.251 4.027 7.639 7.191 10.163 3.196 2.493 7.159 3.74 11.889 3.74Z"/>
  <path fill="url(#d)" d="m174.507 49.91.943-.333-.235-.668h-.708v1Zm44.261 125.503-.943.333.236.667h.707v-1Zm1.747 0v1h.708l.235-.667-.943-.333Zm44.262-125.504v-1h-.708l-.235.668.943.332Zm18.927 0 .939.345.494-1.345h-1.433v1ZM228.96 199v1h.698l.241-.655-.939-.345Zm-18.636 0-.939.345.241.655h.698v-1ZM155.579 49.91v-1h-1.432l.494 1.344.938-.345Zm17.985.332 44.261 125.504 1.886-.665L175.45 49.577l-1.886.665Zm45.204 126.171h1.747v-2h-1.747v2Zm2.69-.667L265.72 50.242l-1.886-.665-44.262 125.504 1.886.665Zm43.319-124.837h18.927v-2h-18.927v2Zm17.989-1.345-54.745 149.091 1.878.69 54.744-149.091-1.877-.69ZM228.96 198h-18.636v2h18.636v-2Zm-17.698.655-54.744-149.09-1.877.689 54.744 149.091 1.877-.69ZM155.579 50.909h18.928v-2h-18.928v2Zm115.714 147.18-.426.905.006.003.42-.908Zm-9.061-7.718-.834.551.002.003.832-.554Zm-.863-22.532.845.535.003-.004-.848-.531Zm15.869-9.588.213.977.007-.002-.22-.975Zm10.211-1.822-.128-.992h-.002l.13.992Zm10.882-1.294.103.994.01-.001-.113-.993Zm6.137-1.582-.49-.873-.009.006.499.867Zm-1.918-15.245-.716.698.005.004.711-.702Zm-24.354-.384.611.792-.611-.792Zm-6.472 7.575-.336.941.859.307.384-.827-.907-.421Zm-10.738-3.836-.919-.394-.419.978 1.001.358.337-.942Zm7.67-10.451.615.789.001-.001-.616-.788Zm10.547-5.273.252.968.006-.002-.258-.966Zm19.464-.671-.184.983.011.002.173-.985Zm8.965 3.404-.515.857.004.002.511-.859Zm7.239 7.814-.876.482.876-.482ZM317.747 199v1h1v-1h-1Zm-11.314 0h-1v1h1v-1Zm0-9.972h1v-1h-1v1Zm-.575 0v-1h-.629l-.273.568.902.432Zm-3.835 5.13.713.701-.713-.701Zm-7.143 4.65-.396-.918.396.918Zm2.157-10.882-.493-.87-.004.002.497.868Zm6.999-6.808-.867-.498-.004.008.871.49Zm2.397-19.128h1v-2.762l-1.768 2.122.768.64Zm-3.164 1.582.27.963.012-.004-.282-.959Zm-5.561 1.199.152.988.012-.002-.164-.986Zm-6.088.863.114.993.014-.002-.128-.991Zm-4.746.575.129.991h.001l-.13-.991Zm-8.246 1.869.312.95.008-.002-.32-.948Zm-6.137 3.788-.734-.679.734.679Zm2.062 15.724-.569.822.01.007.559-.829Zm9.444 12.136c-4.538 0-8.627-.854-12.285-2.545l-.839 1.816c3.949 1.825 8.33 2.729 13.124 2.729v-2Zm-12.278-2.542c-3.646-1.715-6.523-4.17-8.655-7.368l-1.664 1.109c2.343 3.514 5.506 6.205 9.467 8.069l.852-1.81Zm-8.652-7.364c-2.111-3.197-3.191-7.088-3.191-11.722h-2c0 4.954 1.158 9.245 3.522 12.824l1.669-1.102Zm-3.191-11.722c0-4.095.808-7.311 2.338-9.724l-1.689-1.071c-1.794 2.829-2.649 6.453-2.649 10.795h2Zm2.341-9.728c1.569-2.505 3.661-4.463 6.291-5.884l-.95-1.759c-2.931 1.583-5.282 3.78-7.036 6.581l1.695 1.062Zm6.291-5.884c2.692-1.454 5.671-2.542 8.943-3.258l-.427-1.954c-3.44.753-6.597 1.903-9.466 3.453l.95 1.759Zm8.95-3.26c3.358-.76 6.732-1.362 10.121-1.805l-.26-1.984c-3.45.452-6.885 1.065-10.302 1.838l.441 1.951Zm10.118-1.805c4.471-.575 8.089-1.005 10.858-1.292l-.206-1.989c-2.792.289-6.428.721-10.907 1.297l.255 1.984Zm10.868-1.293c2.847-.323 5.06-.868 6.522-1.709l-.997-1.733c-1.095.629-2.972 1.139-5.751 1.455l.226 1.987Zm6.513-1.703c1.698-.953 2.476-2.615 2.476-4.708h-2c0 1.551-.532 2.446-1.455 2.963l.979 1.745Zm2.476-4.708v-.383h-2v.383h2Zm0-.383c0-4.915-1.349-8.872-4.172-11.729l-1.422 1.405c2.355 2.385 3.594 5.779 3.594 10.324h2Zm-4.167-11.725c-2.813-2.883-7.002-4.233-12.365-4.233v2c5.055 0 8.632 1.271 10.933 3.63l1.432-1.397Zm-12.365-4.233c-5.537 0-10.015 1.212-13.315 3.756l1.221 1.584c2.836-2.186 6.828-3.34 12.094-3.34v-2Zm-13.315 3.756c-3.158 2.434-5.437 5.077-6.769 7.945l1.814.843c1.162-2.501 3.197-4.908 6.176-7.204l-1.221-1.584Zm-5.525 7.425-10.739-3.835-.673 1.883 10.739 3.835.673-1.883Zm-10.156-2.5c1.864-4.35 4.328-7.686 7.366-10.056l-1.23-1.577c-3.353 2.615-6.004 6.247-7.974 10.845l1.838.788ZM269.272 132c3.125-2.444 6.518-4.139 10.183-5.093l-.504-1.936c-3.941 1.027-7.58 2.848-10.911 5.454l1.232 1.575Zm10.189-5.095c3.757-1.002 7.442-1.5 11.056-1.5v-2c-3.8 0-7.658.524-11.572 1.568l.516 1.932Zm11.056-1.5c2.287 0 4.94.278 7.966.846l.368-1.966c-3.111-.583-5.891-.88-8.334-.88v2Zm7.977.848c2.972.521 5.845 1.609 8.623 3.276l1.029-1.715c-2.974-1.785-6.078-2.965-9.307-3.531l-.345 1.97Zm8.627 3.278c2.73 1.62 5.027 4.082 6.874 7.437l1.752-.964c-1.989-3.613-4.518-6.361-7.605-8.192l-1.021 1.719Zm6.874 7.437c1.807 3.283 2.752 7.763 2.752 13.516h2c0-5.943-.972-10.796-3-14.48l-1.752.964Zm2.752 13.516V199h2v-48.516h-2Zm1 47.516h-11.314v2h11.314v-2Zm-10.314 1v-9.972h-2V199h2Zm-1-10.972h-.575v2h.575v-2Zm-1.477.568c-.703 1.465-1.903 3.086-3.647 4.861l1.427 1.402c1.836-1.869 3.193-3.668 4.023-5.398l-1.803-.865Zm-3.647 4.861c-1.678 1.708-3.941 3.192-6.825 4.433l.791 1.837c3.061-1.317 5.56-2.933 7.461-4.868l-1.427-1.402Zm-6.825 4.433c-2.814 1.21-6.298 1.836-10.487 1.836v2c4.377 0 8.147-.653 11.278-1.999l-.791-1.837Zm-8.761-6.328c4.603 0 8.556-.904 11.811-2.769l-.994-1.735c-2.882 1.651-6.472 2.504-10.817 2.504v2Zm11.807-2.766c3.239-1.837 5.712-4.23 7.377-7.187l-1.742-.981c-1.467 2.604-3.66 4.749-6.621 6.428l.986 1.74Zm7.373-7.179c1.681-2.925 2.53-6.021 2.53-9.272h-2c0 2.885-.749 5.639-2.264 8.275l1.734.997Zm2.53-9.272V161.99h-2v10.355h2Zm-1.768-10.995c-.115.138-.362.339-.83.573-.456.228-1.067.46-1.848.69l.564 1.918c.85-.249 1.581-.521 2.179-.82.587-.293 1.107-.644 1.471-1.081l-1.536-1.28Zm-2.666 1.259c-1.555.436-3.372.828-5.455 1.175l.328 1.973c2.136-.356 4.026-.763 5.667-1.222l-.54-1.926Zm-5.443 1.173c-2.07.319-4.091.605-6.064.86l.256 1.983c1.99-.256 4.027-.545 6.112-.866l-.304-1.977Zm-6.05.858c-1.953.224-3.541.417-4.763.577l.261 1.983c1.207-.159 2.783-.35 4.73-.573l-.228-1.987Zm-4.762.577c-2.999.391-5.812 1.028-8.436 1.914l.64 1.895c2.489-.84 5.173-1.45 8.055-1.826l-.259-1.983Zm-8.429 1.912c-2.661.875-4.86 2.221-6.558 4.058l1.469 1.358c1.434-1.552 3.326-2.731 5.714-3.517l-.625-1.899Zm-6.558 4.058c-1.748 1.893-2.567 4.429-2.567 7.486h2c0-2.696.715-4.698 2.036-6.129l-1.469-1.357Zm-2.567 7.486c0 4.217 1.582 7.516 4.794 9.739l1.138-1.644c-2.605-1.804-3.932-4.449-3.932-8.095h-2Zm4.804 9.746c3.145 2.12 7.077 3.143 11.729 3.143v-2c-4.361 0-7.876-.958-10.611-2.801l-1.118 1.658Zm67.617-87.601h1v-1h-1v1Zm0 98.182v1h1v-1h-1Zm-11.314 0h-1v1h1v-1Zm0-98.182v-1h-1v1h1Zm10.314 0V199h2v-98.182h-2Zm1 97.182h-11.314v2h11.314v-2Zm-10.314 1v-98.182h-2V199h2Zm-1-97.182h11.314v-2h-11.314v2ZM354.234 199h-1v1h1v-1Zm0-73.636v-1h-1v1h1Zm11.313 0h1v-1h-1v1Zm0 73.636v1h1v-1h-1Zm-11.266-88.162-.692.721.008.007.684-.728Zm0-10.835-.684-.728-.008.006.692.722Zm11.362 0-.692.722.007.007.685-.729Zm0 10.835-.685-.729-.007.007.692.722ZM355.234 199v-73.636h-2V199h2Zm-1-72.636h11.313v-2h-11.313v2Zm10.313-1V199h2v-73.636h-2Zm1 72.636h-11.313v2h11.313v-2Zm-5.561-85.909c-1.952 0-3.608-.655-5.02-1.982l-1.369 1.457c1.784 1.678 3.931 2.525 6.389 2.525v-2Zm-5.012-1.975c-1.376-1.32-2.042-2.867-2.042-4.696h-2c0 2.391.901 4.455 2.657 6.139l1.385-1.443Zm-2.042-4.696c0-1.828.666-3.375 2.042-4.695l-1.385-1.444c-1.756 1.685-2.657 3.749-2.657 6.139h2Zm2.034-4.688c1.412-1.327 3.068-1.982 5.02-1.982v-2c-2.458 0-4.605.847-6.389 2.525l1.369 1.457Zm5.02-1.982c1.952 0 3.589.655 4.965 1.975l1.385-1.444c-1.756-1.683-3.891-2.531-6.35-2.531v2Zm4.972 1.982c1.406 1.321 2.082 2.867 2.082 4.688h2c0-2.397-.922-4.463-2.712-6.145l-1.37 1.457Zm2.082 4.688c0 1.822-.676 3.367-2.082 4.689l1.37 1.457c1.79-1.682 2.712-3.748 2.712-6.146h-2Zm-2.089 4.696c-1.376 1.32-3.013 1.975-4.965 1.975v2c2.459 0 4.594-.848 6.35-2.532l-1.385-1.443Zm24.772 85.768-.554.832.004.003.55-.835Zm-11.026-13.232-.907.421.001.002.906-.423Zm0-40.413-.906-.423.906.423Zm11.074-13.184-.548-.836.548.836Zm27.758-2.253-.499.867.012.007.487-.874Zm6.424 5.369-.808.59.005.007.006.007.797-.604Zm3.499 4.89-.838.545.296.455h.542v-1Zm.959 0v1h1v-1h-1Zm0-36.243v-1h-1v1h1Zm11.314 0h1v-1h-1v1Zm0 98.182v1h1v-1h-1Zm-10.93 0h-1v1h1v-1Zm0-11.314h1v-1h-1v1Zm-1.343 0v-1h-.557l-.293.474.85.526Zm-3.547 5.082.795.606.005-.006-.8-.6Zm-6.568 5.417.482.876.008-.004-.49-.872Zm1.678-11.362.602.798.006-.004-.608-.794Zm7.143-9.923.933.36.001-.002-.934-.358Zm.048-29.148-.933.359v.002l.933-.361Zm-7.095-9.684-.598.802.006.004.592-.806Zm-23.587.192.609.793.001-.001-.61-.792Zm-7.143 9.923-.934-.356-.002.004.936.352Zm.048 28.285-.937.35.003.008.934-.358Zm7.191 10.163-.624.782.009.007.615-.789Zm10.355 12.903c-5.959 0-11.181-1.502-15.701-4.485l-1.101 1.67c4.876 3.217 10.488 4.815 16.802 4.815v-2Zm-15.697-4.482c-4.529-3.02-8.091-7.28-10.675-12.822l-1.812.845c2.721 5.836 6.51 10.396 11.378 13.641l1.109-1.664Zm-10.674-12.82c-2.579-5.562-3.886-12.172-3.886-19.858h-2c0 7.91 1.345 14.819 4.072 20.699l1.814-.841Zm-3.886-19.858c0-7.622 1.307-14.183 3.885-19.713l-1.812-.845c-2.727 5.848-4.073 12.71-4.073 20.558h2Zm3.885-19.713c2.583-5.539 6.159-9.782 10.716-12.77l-1.096-1.672c-4.902 3.213-8.71 7.759-11.432 13.597l1.812.845Zm10.716-12.77c4.552-2.983 9.823-4.486 15.848-4.486v-2c-6.376 0-12.035 1.597-16.944 4.814l1.096 1.672Zm15.848-4.486c4.699 0 8.291.786 10.863 2.264l.997-1.734c-2.989-1.718-6.971-2.53-11.86-2.53v2Zm10.875 2.271c2.722 1.515 4.739 3.217 6.103 5.085l1.615-1.18c-1.576-2.159-3.841-4.036-6.745-5.653l-.973 1.748Zm6.114 5.099c1.495 1.973 2.646 3.581 3.458 4.831l1.677-1.09c-.85-1.307-2.033-2.959-3.541-4.949l-1.594 1.208Zm4.296 5.286h.959v-2h-.959v2Zm1.959-1v-36.243h-2v36.243h2Zm-1-35.243h11.314v-2h-11.314v2Zm10.314-1V199h2v-98.182h-2Zm1 97.182h-10.93v2h10.93v-2Zm-9.93 1v-11.314h-2V199h2Zm-1-12.314h-1.343v2h1.343v-2Zm-2.193.474c-.809 1.306-1.972 2.973-3.497 5.008l1.6 1.2c1.542-2.057 2.744-3.777 3.598-5.156l-1.701-1.052Zm-3.493 5.002c-1.431 1.878-3.503 3.601-6.262 5.151l.98 1.744c2.93-1.646 5.236-3.535 6.873-5.683l-1.591-1.212Zm-6.254 5.147c-2.645 1.456-6.247 2.225-10.88 2.225v2c4.827 0 8.8-.797 11.844-2.473l-.964-1.752Zm-9.346-5.938c4.721 0 8.777-1.234 12.108-3.75l-1.205-1.596c-2.932 2.214-6.547 3.346-10.903 3.346v2Zm12.114-3.754c3.298-2.524 5.781-5.992 7.468-10.357l-1.866-.721c-1.573 4.073-3.852 7.221-6.818 9.49l1.216 1.588Zm7.469-10.359c1.682-4.388 2.511-9.419 2.511-15.076h-2c0 5.465-.801 10.245-2.379 14.359l1.868.717Zm2.511-15.076c0-5.592-.813-10.529-2.465-14.792l-1.865.723c1.544 3.984 2.33 8.666 2.33 14.069h2Zm-2.464-14.789c-1.656-4.307-4.128-7.701-7.436-10.131l-1.184 1.612c2.956 2.172 5.214 5.234 6.754 9.237l1.866-.718Zm-7.431-10.127c-3.334-2.484-7.421-3.698-12.199-3.698v2c4.427 0 8.074 1.119 11.004 3.302l1.195-1.604Zm-12.199-3.698c-4.972 0-9.193 1.28-12.595 3.899l1.22 1.585c2.99-2.302 6.759-3.484 11.375-3.484v-2Zm-12.594 3.898c-3.328 2.555-5.813 6.023-7.468 10.361l1.868.713c1.541-4.036 3.818-7.184 6.818-9.487l-1.218-1.587Zm-7.47 10.365c-1.615 4.284-2.413 9.072-2.413 14.351h2c0-5.077.768-9.621 2.285-13.646l-1.872-.705Zm-2.413 14.351c0 5.343.815 10.226 2.46 14.636l1.874-.7c-1.551-4.155-2.334-8.797-2.334-13.936h-2Zm2.463 14.644c1.686 4.396 4.181 7.938 7.501 10.587l1.248-1.563c-3.008-2.401-5.307-5.634-6.881-9.74l-1.868.716Zm7.51 10.594c3.4 2.652 7.59 3.951 12.504 3.951v-2c-4.546 0-8.282-1.194-11.274-3.528l-1.23 1.577Z" mask="url(#e)"/>
  <defs>
    <linearGradient id="c" x1="156" x2="441" y1="50" y2="200" gradientUnits="userSpaceOnUse">
      <stop offset=".045" stop-color="#E22346"/>
      <stop offset=".735" stop-color="#7F52FF"/>
    </linearGradient>
    <linearGradient id="d" x1="438" x2="155" y1="199" y2="48" gradientUnits="userSpaceOnUse">
      <stop offset=".045" stop-color="#E44857"/>
      <stop offset=".5" stop-color="#C711E1"/>
      <stop offset=".94" stop-color="#7F52FF"/>
    </linearGradient>
    <radialGradient id="b" cx="0" cy="0" r="1" gradientTransform="matrix(172.449 0 0 172.518 145.608 54.543)" gradientUnits="userSpaceOnUse">
      <stop stop-color="#E44857"/>
      <stop offset=".47" stop-color="#C711E1"/>
      <stop offset="1" stop-color="#7F52FF"/>
    </radialGradient>
    <clipPath id="a">
      <path fill="#fff" d="M0 49h150v150H0z"/>
    </clipPath>
  </defs>
</svg>
